<svg width="25" height="26" viewBox="0 0 25 26" fill="none" xmlns="http://www.w3.org/2000/svg">
<path d="M9.37492 11.9798C11.6761 11.9798 13.5416 10.1143 13.5416 7.81315C13.5416 5.51196 11.6761 3.64648 9.37492 3.64648C7.07373 3.64648 5.20825 5.51196 5.20825 7.81315C5.20825 10.1143 7.07373 11.9798 9.37492 11.9798Z" stroke="#A84002" stroke-linecap="round" stroke-linejoin="round"/>
<path d="M3.125 22.3975V20.3141C3.125 19.2091 3.56399 18.1493 4.34539 17.3679C5.12679 16.5864 6.1866 16.1475 7.29167 16.1475H11.4583C12.5634 16.1475 13.6232 16.5864 14.4046 17.3679C15.186 18.1493 15.625 19.2091 15.625 20.3141V22.3975" stroke="#A84002" stroke-linecap="round" stroke-linejoin="round"/>
<path d="M16.6667 3.78125C17.563 4.01073 18.3574 4.53198 18.9247 5.26282C19.492 5.99367 19.7999 6.89253 19.7999 7.81771C19.7999 8.74289 19.492 9.64175 18.9247 10.3726C18.3574 11.1034 17.563 11.6247 16.6667 11.8542" stroke="#A84002" stroke-linecap="round" stroke-linejoin="round"/>
<path d="M21.875 22.397V20.3136C21.8697 19.394 21.5603 18.502 20.9951 17.7766C20.4298 17.0511 19.6404 16.5331 18.75 16.3032" stroke="#A84002" stroke-linecap="round" stroke-linejoin="round"/>
</svg>
