<svg width="523" height="328" viewBox="0 0 523 328" fill="none" xmlns="http://www.w3.org/2000/svg">
<path d="M282 227.143H246V312.15H282V227.143Z" fill="#D1D3D4"/>
<path d="M276.445 219.156H251.963V227.154H276.445V219.156Z" fill="#D1D3D4"/>
<path d="M272.967 212.141H255.471V219.145H272.967V212.141Z" fill="#D1D3D4"/>
<path d="M371 234.143L438.021 244.385V313.015H371V234.143Z" fill="#EDEDED"/>
<path d="M323 283.148H134V314.15H323V283.148Z" fill="#E6E6E6"/>
<path d="M276 277.147H151V284.147H276V277.147Z" fill="#E6E6E6"/>
<path d="M337.858 156.558H286.599V160.942H337.858V156.558Z" fill="white"/>
<path d="M337.858 161.552H286.599C286.441 161.549 286.29 161.485 286.179 161.374C286.067 161.262 286.003 161.112 286 160.954V156.558C286.003 156.4 286.067 156.25 286.179 156.138C286.29 156.027 286.441 155.963 286.599 155.959H337.858C338.017 155.959 338.169 156.023 338.282 156.135C338.394 156.247 338.457 156.399 338.457 156.558V160.954C338.457 161.112 338.394 161.265 338.282 161.377C338.169 161.489 338.017 161.552 337.858 161.552ZM287.198 160.355H337.259V157.157H287.198V160.355Z" fill="#EDEDED"/>
<path d="M333.726 160.942H290.742V165.158H333.726V160.942Z" fill="white"/>
<path d="M333.726 165.757H290.742C290.584 165.757 290.431 165.694 290.319 165.582C290.207 165.469 290.144 165.317 290.144 165.158V160.954C290.144 160.796 290.207 160.643 290.319 160.531C290.431 160.419 290.584 160.356 290.742 160.356H333.726C333.885 160.356 334.037 160.419 334.149 160.531C334.262 160.643 334.325 160.796 334.325 160.954V165.158C334.325 165.317 334.262 165.469 334.149 165.582C334.037 165.694 333.885 165.757 333.726 165.757ZM291.341 164.559H333.127V161.553H291.341V164.559Z" fill="#EDEDED"/>
<path d="M333.726 160.942H290.742V165.158H333.726V160.942Z" fill="#EDEDED"/>
<path d="M333.726 165.159H290.742V176.98H333.726V165.159Z" fill="white"/>
<path d="M333.726 177.579H290.742C290.584 177.579 290.431 177.516 290.319 177.404C290.207 177.292 290.144 177.139 290.144 176.98V165.159C290.144 165 290.207 164.848 290.319 164.735C290.431 164.623 290.584 164.56 290.742 164.56H333.726C333.885 164.56 334.037 164.623 334.149 164.735C334.262 164.848 334.325 165 334.325 165.159V176.98C334.325 177.139 334.262 177.292 334.149 177.404C334.037 177.516 333.885 177.579 333.726 177.579ZM291.341 176.382H333.127V165.758H291.341V176.382Z" fill="#EDEDED"/>
<path d="M333.726 165.159H290.742V176.98H333.726V165.159Z" fill="#D1D3D4"/>
<path d="M333.726 177.579H290.742C290.584 177.579 290.431 177.516 290.319 177.404C290.207 177.292 290.144 177.139 290.144 176.98V165.159C290.144 165 290.207 164.848 290.319 164.735C290.431 164.623 290.584 164.56 290.742 164.56H333.726C333.885 164.56 334.037 164.623 334.149 164.735C334.262 164.848 334.325 165 334.325 165.159V176.98C334.325 177.139 334.262 177.292 334.149 177.404C334.037 177.516 333.885 177.579 333.726 177.579ZM291.341 176.382H333.127V165.758H291.341V176.382Z" fill="#EDEDED"/>
<path d="M301.222 177.579C301.063 177.579 300.911 177.516 300.798 177.404C300.686 177.292 300.623 177.139 300.623 176.98V165.159C300.626 165.001 300.69 164.85 300.802 164.739C300.913 164.627 301.064 164.563 301.222 164.56C301.381 164.56 301.533 164.623 301.645 164.735C301.758 164.848 301.821 165 301.821 165.159V176.98C301.821 177.139 301.758 177.292 301.645 177.404C301.533 177.516 301.381 177.579 301.222 177.579Z" fill="#EDEDED"/>
<path d="M312.228 177.579C312.069 177.579 311.917 177.516 311.805 177.404C311.692 177.292 311.629 177.139 311.629 176.98V165.159C311.632 165.001 311.697 164.85 311.808 164.739C311.92 164.627 312.07 164.563 312.228 164.56C312.387 164.56 312.539 164.623 312.652 164.735C312.764 164.848 312.827 165 312.827 165.159V176.98C312.827 177.139 312.764 177.292 312.652 177.404C312.539 177.516 312.387 177.579 312.228 177.579Z" fill="#EDEDED"/>
<path d="M323.198 177.579C323.04 177.579 322.887 177.516 322.775 177.404C322.663 177.292 322.6 177.139 322.6 176.98V165.159C322.6 165 322.663 164.848 322.775 164.735C322.887 164.623 323.04 164.56 323.198 164.56C323.356 164.563 323.507 164.627 323.618 164.739C323.73 164.85 323.794 165.001 323.797 165.159V176.98C323.797 177.139 323.734 177.292 323.622 177.404C323.51 177.516 323.357 177.579 323.198 177.579Z" fill="#EDEDED"/>
<path d="M337.858 176.117H286.599V180.501H337.858V176.117Z" fill="white"/>
<path d="M337.858 181.112H286.599C286.441 181.109 286.29 181.044 286.179 180.933C286.067 180.821 286.003 180.671 286 180.513V176.117C286.003 175.96 286.067 175.809 286.179 175.697C286.29 175.586 286.441 175.522 286.599 175.519H337.858C338.017 175.519 338.169 175.582 338.282 175.694C338.394 175.806 338.457 175.959 338.457 176.117V180.513C338.457 180.672 338.394 180.824 338.282 180.936C338.169 181.048 338.017 181.112 337.858 181.112ZM287.198 179.914H337.259V176.716H287.198V179.914Z" fill="#EDEDED"/>
<path d="M333.726 180.513H290.742V184.729H333.726V180.513Z" fill="white"/>
<path d="M333.726 185.316H290.742C290.584 185.316 290.431 185.253 290.319 185.14C290.207 185.028 290.144 184.876 290.144 184.717V180.513C290.144 180.354 290.207 180.202 290.319 180.09C290.431 179.977 290.584 179.914 290.742 179.914H333.726C333.885 179.914 334.037 179.977 334.149 180.09C334.262 180.202 334.325 180.354 334.325 180.513V184.717C334.325 184.876 334.262 185.028 334.149 185.14C334.037 185.253 333.885 185.316 333.726 185.316ZM291.341 184.118H333.127V181.112H291.341V184.118Z" fill="#EDEDED"/>
<path d="M333.726 180.513H290.742V184.729H333.726V180.513Z" fill="#EDEDED"/>
<path d="M333.726 184.717H290.742V196.538H333.726V184.717Z" fill="white"/>
<path d="M333.726 197.137H290.742C290.584 197.137 290.431 197.074 290.319 196.961C290.207 196.849 290.144 196.697 290.144 196.538V184.717C290.144 184.558 290.207 184.406 290.319 184.294C290.431 184.182 290.584 184.118 290.742 184.118H333.726C333.885 184.118 334.037 184.182 334.149 184.294C334.262 184.406 334.325 184.558 334.325 184.717V196.538C334.325 196.697 334.262 196.849 334.149 196.961C334.037 197.074 333.885 197.137 333.726 197.137ZM291.341 195.939H333.127V185.316H291.341V195.939Z" fill="#EDEDED"/>
<path d="M333.726 184.717H290.742V196.538H333.726V184.717Z" fill="#D1D3D4"/>
<path d="M333.726 197.137H290.742C290.584 197.137 290.431 197.074 290.319 196.961C290.207 196.849 290.144 196.697 290.144 196.538V184.717C290.144 184.558 290.207 184.406 290.319 184.294C290.431 184.182 290.584 184.118 290.742 184.118H333.726C333.885 184.118 334.037 184.182 334.149 184.294C334.262 184.406 334.325 184.558 334.325 184.717V196.538C334.325 196.697 334.262 196.849 334.149 196.961C334.037 197.074 333.885 197.137 333.726 197.137ZM291.341 195.939H333.127V185.316H291.341V195.939Z" fill="#EDEDED"/>
<path d="M301.222 197.137C301.063 197.137 300.911 197.074 300.798 196.961C300.686 196.849 300.623 196.697 300.623 196.538V184.717C300.626 184.559 300.69 184.409 300.802 184.297C300.913 184.186 301.064 184.121 301.222 184.118C301.381 184.118 301.533 184.182 301.645 184.294C301.758 184.406 301.821 184.558 301.821 184.717V196.538C301.821 196.697 301.758 196.849 301.645 196.961C301.533 197.074 301.381 197.137 301.222 197.137Z" fill="#EDEDED"/>
<path d="M312.228 197.137C312.069 197.137 311.917 197.074 311.805 196.961C311.692 196.849 311.629 196.697 311.629 196.538V184.717C311.632 184.559 311.697 184.409 311.808 184.297C311.92 184.186 312.07 184.121 312.228 184.118C312.387 184.118 312.539 184.182 312.652 184.294C312.764 184.406 312.827 184.558 312.827 184.717V196.538C312.827 196.697 312.764 196.849 312.652 196.961C312.539 197.074 312.387 197.137 312.228 197.137Z" fill="#EDEDED"/>
<path d="M323.198 197.137C323.04 197.137 322.887 197.074 322.775 196.961C322.663 196.849 322.6 196.697 322.6 196.538V184.717C322.6 184.558 322.663 184.406 322.775 184.294C322.887 184.182 323.04 184.118 323.198 184.118C323.356 184.121 323.507 184.186 323.618 184.297C323.73 184.409 323.794 184.559 323.797 184.717V196.538C323.797 196.697 323.734 196.849 323.622 196.961C323.51 197.074 323.357 197.137 323.198 197.137Z" fill="#EDEDED"/>
<path d="M337.858 195.677H286.599V200.06H337.858V195.677Z" fill="white"/>
<path d="M337.858 200.671H286.599C286.441 200.668 286.29 200.604 286.179 200.492C286.067 200.381 286.003 200.23 286 200.072V195.677C286.003 195.519 286.067 195.368 286.179 195.257C286.29 195.145 286.441 195.081 286.599 195.078H337.858C338.017 195.078 338.169 195.141 338.282 195.253C338.394 195.366 338.457 195.518 338.457 195.677V200.072C338.457 200.231 338.394 200.383 338.282 200.496C338.169 200.608 338.017 200.671 337.858 200.671ZM287.198 199.473H337.259V196.276H287.198V199.473Z" fill="#EDEDED"/>
<path d="M333.726 200.073H290.742V204.288H333.726V200.073Z" fill="white"/>
<path d="M333.726 204.875H290.742C290.584 204.875 290.431 204.812 290.319 204.7C290.207 204.587 290.144 204.435 290.144 204.276V200.073C290.144 199.914 290.207 199.761 290.319 199.649C290.431 199.537 290.584 199.474 290.742 199.474H333.726C333.885 199.474 334.037 199.537 334.149 199.649C334.262 199.761 334.325 199.914 334.325 200.073V204.276C334.325 204.435 334.262 204.587 334.149 204.7C334.037 204.812 333.885 204.875 333.726 204.875ZM291.341 203.677H333.127V200.671H291.341V203.677Z" fill="#EDEDED"/>
<path d="M333.726 200.073H290.742V204.288H333.726V200.073Z" fill="#EDEDED"/>
<path d="M333.726 204.277H290.742V216.097H333.726V204.277Z" fill="white"/>
<path d="M333.726 216.697H290.742C290.584 216.697 290.431 216.634 290.319 216.522C290.207 216.409 290.144 216.257 290.144 216.098V204.276C290.144 204.118 290.207 203.965 290.319 203.853C290.431 203.741 290.584 203.678 290.742 203.678H333.726C333.885 203.678 334.037 203.741 334.149 203.853C334.262 203.965 334.325 204.118 334.325 204.276V216.158C334.31 216.306 334.24 216.444 334.13 216.543C334.019 216.643 333.875 216.698 333.726 216.697ZM291.341 215.499H333.127V204.875H291.341V215.499Z" fill="#EDEDED"/>
<path d="M333.726 204.277H290.742V216.097H333.726V204.277Z" fill="#D1D3D4"/>
<path d="M333.726 216.697H290.742C290.584 216.697 290.431 216.634 290.319 216.522C290.207 216.409 290.144 216.257 290.144 216.098V204.276C290.144 204.118 290.207 203.965 290.319 203.853C290.431 203.741 290.584 203.678 290.742 203.678H333.726C333.885 203.678 334.037 203.741 334.149 203.853C334.262 203.965 334.325 204.118 334.325 204.276V216.158C334.31 216.306 334.24 216.444 334.13 216.543C334.019 216.643 333.875 216.698 333.726 216.697ZM291.341 215.499H333.127V204.875H291.341V215.499Z" fill="#EDEDED"/>
<path d="M301.222 216.697C301.063 216.697 300.911 216.634 300.798 216.522C300.686 216.409 300.623 216.257 300.623 216.098V204.276C300.626 204.119 300.69 203.968 300.802 203.856C300.913 203.745 301.064 203.681 301.222 203.678C301.381 203.678 301.533 203.741 301.645 203.853C301.758 203.965 301.821 204.118 301.821 204.276V216.158C301.806 216.306 301.736 216.444 301.625 216.543C301.515 216.643 301.371 216.698 301.222 216.697Z" fill="#EDEDED"/>
<path d="M312.228 216.697C312.069 216.697 311.917 216.634 311.805 216.522C311.692 216.409 311.629 216.257 311.629 216.098V204.276C311.632 204.119 311.697 203.968 311.808 203.856C311.92 203.745 312.07 203.681 312.228 203.678C312.387 203.678 312.539 203.741 312.652 203.853C312.764 203.965 312.827 204.118 312.827 204.276V216.158C312.812 216.306 312.743 216.444 312.632 216.543C312.521 216.643 312.377 216.698 312.228 216.697Z" fill="#EDEDED"/>
<path d="M323.198 216.697C323.04 216.697 322.887 216.634 322.775 216.522C322.663 216.409 322.6 216.257 322.6 216.098V204.276C322.6 204.118 322.663 203.965 322.775 203.853C322.887 203.741 323.04 203.678 323.198 203.678C323.356 203.681 323.507 203.745 323.618 203.856C323.73 203.968 323.794 204.119 323.797 204.276V216.158C323.782 216.306 323.713 216.444 323.602 216.543C323.491 216.643 323.347 216.698 323.198 216.697Z" fill="#EDEDED"/>
<path d="M337.858 215.236H286.599V219.619H337.858V215.236Z" fill="white"/>
<path d="M337.858 220.23H286.599C286.441 220.227 286.29 220.163 286.179 220.051C286.067 219.94 286.003 219.789 286 219.631V215.248C286 215.089 286.063 214.937 286.175 214.825C286.288 214.712 286.44 214.649 286.599 214.649H337.858C338.017 214.649 338.169 214.712 338.282 214.825C338.394 214.937 338.457 215.089 338.457 215.248V219.631C338.457 219.79 338.394 219.943 338.282 220.055C338.169 220.167 338.017 220.23 337.858 220.23ZM287.198 219.033H337.259V215.847H287.198V219.033Z" fill="#EDEDED"/>
<path d="M333.726 219.632H290.742V223.847H333.726V219.632Z" fill="white"/>
<path d="M333.726 224.434H290.742C290.584 224.434 290.431 224.371 290.319 224.259C290.207 224.147 290.144 223.994 290.144 223.836V219.632C290.144 219.473 290.207 219.321 290.319 219.208C290.431 219.096 290.584 219.033 290.742 219.033H333.726C333.885 219.033 334.037 219.096 334.149 219.208C334.262 219.321 334.325 219.473 334.325 219.632V223.836C334.325 223.994 334.262 224.147 334.149 224.259C334.037 224.371 333.885 224.434 333.726 224.434ZM291.341 223.237H333.127V220.231H291.341V223.237Z" fill="#EDEDED"/>
<path d="M333.726 219.632H290.742V223.847H333.726V219.632Z" fill="#EDEDED"/>
<path d="M333.726 223.836H290.742V235.657H333.726V223.836Z" fill="white"/>
<path d="M333.726 236.256H290.742C290.584 236.256 290.431 236.193 290.319 236.081C290.207 235.969 290.144 235.816 290.144 235.657V223.836C290.144 223.677 290.207 223.525 290.319 223.412C290.431 223.3 290.584 223.237 290.742 223.237H333.726C333.885 223.237 334.037 223.3 334.149 223.412C334.262 223.525 334.325 223.677 334.325 223.836V235.657C334.325 235.816 334.262 235.969 334.149 236.081C334.037 236.193 333.885 236.256 333.726 236.256ZM291.341 235.059H333.127V224.435H291.341V235.059Z" fill="#EDEDED"/>
<path d="M333.726 223.836H290.742V235.657H333.726V223.836Z" fill="#D1D3D4"/>
<path d="M333.726 236.256H290.742C290.584 236.256 290.431 236.193 290.319 236.081C290.207 235.969 290.144 235.816 290.144 235.657V223.836C290.144 223.677 290.207 223.525 290.319 223.412C290.431 223.3 290.584 223.237 290.742 223.237H333.726C333.885 223.237 334.037 223.3 334.149 223.412C334.262 223.525 334.325 223.677 334.325 223.836V235.657C334.325 235.816 334.262 235.969 334.149 236.081C334.037 236.193 333.885 236.256 333.726 236.256ZM291.341 235.059H333.127V224.435H291.341V235.059Z" fill="#EDEDED"/>
<path d="M301.222 236.256C301.063 236.256 300.911 236.193 300.798 236.081C300.686 235.969 300.623 235.816 300.623 235.657V223.836C300.626 223.678 300.69 223.527 300.802 223.416C300.913 223.304 301.064 223.24 301.222 223.237C301.381 223.237 301.533 223.3 301.645 223.412C301.758 223.525 301.821 223.677 301.821 223.836V235.657C301.821 235.816 301.758 235.969 301.645 236.081C301.533 236.193 301.381 236.256 301.222 236.256Z" fill="#EDEDED"/>
<path d="M312.228 236.256C312.069 236.256 311.917 236.193 311.805 236.081C311.692 235.969 311.629 235.816 311.629 235.657V223.836C311.632 223.678 311.697 223.527 311.808 223.416C311.92 223.304 312.07 223.24 312.228 223.237C312.387 223.237 312.539 223.3 312.652 223.412C312.764 223.525 312.827 223.677 312.827 223.836V235.657C312.827 235.816 312.764 235.969 312.652 236.081C312.539 236.193 312.387 236.256 312.228 236.256Z" fill="#EDEDED"/>
<path d="M323.198 236.256C323.04 236.256 322.887 236.193 322.775 236.081C322.663 235.969 322.6 235.816 322.6 235.657V223.836C322.6 223.677 322.663 223.525 322.775 223.412C322.887 223.3 323.04 223.237 323.198 223.237C323.356 223.24 323.507 223.304 323.618 223.416C323.73 223.527 323.794 223.678 323.797 223.836V235.657C323.797 235.816 323.734 235.969 323.622 236.081C323.51 236.193 323.357 236.256 323.198 236.256Z" fill="#EDEDED"/>
<path d="M337.858 234.807H286.599V239.191H337.858V234.807Z" fill="white"/>
<path d="M337.858 239.789H286.599C286.441 239.786 286.29 239.722 286.179 239.611C286.067 239.499 286.003 239.348 286 239.191V234.807C286 234.648 286.063 234.496 286.175 234.384C286.288 234.271 286.44 234.208 286.599 234.208H337.858C338.017 234.208 338.169 234.271 338.282 234.384C338.394 234.496 338.457 234.648 338.457 234.807V239.191C338.457 239.349 338.394 239.502 338.282 239.614C338.169 239.726 338.017 239.789 337.858 239.789ZM287.198 238.592H337.259V235.406H287.198V238.592Z" fill="#EDEDED"/>
<path d="M333.726 239.191H290.742V243.407H333.726V239.191Z" fill="white"/>
<path d="M333.726 243.994H290.742C290.584 243.994 290.431 243.93 290.319 243.818C290.207 243.706 290.144 243.554 290.144 243.395V239.191C290.144 239.032 290.207 238.88 290.319 238.768C290.431 238.655 290.584 238.592 290.742 238.592H333.726C333.885 238.592 334.037 238.655 334.149 238.768C334.262 238.88 334.325 239.032 334.325 239.191V243.395C334.325 243.554 334.262 243.706 334.149 243.818C334.037 243.93 333.885 243.994 333.726 243.994ZM291.341 242.796H333.127V239.79H291.341V242.796Z" fill="#EDEDED"/>
<path d="M333.726 239.191H290.742V243.407H333.726V239.191Z" fill="#EDEDED"/>
<path d="M333.726 243.395H290.742V255.217H333.726V243.395Z" fill="white"/>
<path d="M333.726 255.815H290.742C290.584 255.815 290.431 255.751 290.319 255.639C290.207 255.527 290.144 255.375 290.144 255.216V243.395C290.144 243.236 290.207 243.084 290.319 242.972C290.431 242.859 290.584 242.796 290.742 242.796H333.726C333.885 242.796 334.037 242.859 334.149 242.972C334.262 243.084 334.325 243.236 334.325 243.395V255.216C334.325 255.375 334.262 255.527 334.149 255.639C334.037 255.751 333.885 255.815 333.726 255.815ZM291.341 254.617H333.127V243.994H291.341V254.617Z" fill="#EDEDED"/>
<path d="M333.726 243.395H290.742V255.217H333.726V243.395Z" fill="#D1D3D4"/>
<path d="M333.726 255.815H290.742C290.584 255.815 290.431 255.751 290.319 255.639C290.207 255.527 290.144 255.375 290.144 255.216V243.395C290.144 243.236 290.207 243.084 290.319 242.972C290.431 242.859 290.584 242.796 290.742 242.796H333.726C333.885 242.796 334.037 242.859 334.149 242.972C334.262 243.084 334.325 243.236 334.325 243.395V255.216C334.325 255.375 334.262 255.527 334.149 255.639C334.037 255.751 333.885 255.815 333.726 255.815ZM291.341 254.617H333.127V243.994H291.341V254.617Z" fill="#EDEDED"/>
<path d="M301.222 255.815C301.063 255.815 300.911 255.751 300.798 255.639C300.686 255.527 300.623 255.375 300.623 255.216V243.395C300.626 243.237 300.69 243.087 300.802 242.975C300.913 242.863 301.064 242.799 301.222 242.796C301.381 242.796 301.533 242.859 301.645 242.972C301.758 243.084 301.821 243.236 301.821 243.395V255.216C301.821 255.375 301.758 255.527 301.645 255.639C301.533 255.751 301.381 255.815 301.222 255.815Z" fill="#EDEDED"/>
<path d="M312.228 255.815C312.069 255.815 311.917 255.751 311.805 255.639C311.692 255.527 311.629 255.375 311.629 255.216V243.395C311.632 243.237 311.697 243.087 311.808 242.975C311.92 242.863 312.07 242.799 312.228 242.796C312.387 242.796 312.539 242.859 312.652 242.972C312.764 243.084 312.827 243.236 312.827 243.395V255.216C312.827 255.375 312.764 255.527 312.652 255.639C312.539 255.751 312.387 255.815 312.228 255.815Z" fill="#EDEDED"/>
<path d="M323.198 255.815C323.04 255.815 322.887 255.751 322.775 255.639C322.663 255.527 322.6 255.375 322.6 255.216V243.395C322.6 243.236 322.663 243.084 322.775 242.972C322.887 242.859 323.04 242.796 323.198 242.796C323.356 242.799 323.507 242.863 323.618 242.975C323.73 243.087 323.794 243.237 323.797 243.395V255.216C323.797 255.375 323.734 255.527 323.622 255.639C323.51 255.751 323.357 255.815 323.198 255.815Z" fill="#EDEDED"/>
<path d="M337.858 254.366H286.599V258.75H337.858V254.366Z" fill="white"/>
<path d="M337.858 259.349H286.599C286.441 259.346 286.29 259.281 286.179 259.17C286.067 259.058 286.003 258.908 286 258.75V254.366C286 254.208 286.063 254.055 286.175 253.943C286.288 253.831 286.44 253.768 286.599 253.768H337.858C338.017 253.768 338.169 253.831 338.282 253.943C338.394 254.055 338.457 254.208 338.457 254.366V258.75C338.457 258.909 338.394 259.061 338.282 259.173C338.169 259.286 338.017 259.349 337.858 259.349ZM287.198 258.151H337.259V254.965H287.198V258.151Z" fill="#EDEDED"/>
<path d="M333.726 258.75H290.742V262.966H333.726V258.75Z" fill="white"/>
<path d="M333.726 263.553H290.742C290.584 263.553 290.431 263.49 290.319 263.378C290.207 263.265 290.144 263.113 290.144 262.954V258.75C290.144 258.592 290.207 258.439 290.319 258.327C290.431 258.215 290.584 258.152 290.742 258.152H333.726C333.885 258.152 334.037 258.215 334.149 258.327C334.262 258.439 334.325 258.592 334.325 258.75V262.954C334.325 263.113 334.262 263.265 334.149 263.378C334.037 263.49 333.885 263.553 333.726 263.553ZM291.341 262.355H333.127V259.349H291.341V262.355Z" fill="#EDEDED"/>
<path d="M333.726 258.75H290.742V262.966H333.726V258.75Z" fill="#EDEDED"/>
<path d="M333.726 262.954H290.742V274.775H333.726V262.954Z" fill="white"/>
<path d="M333.726 275.375H290.742C290.584 275.375 290.431 275.312 290.319 275.2C290.207 275.087 290.144 274.935 290.144 274.776V262.954C290.144 262.795 290.207 262.643 290.319 262.531C290.431 262.418 290.584 262.355 290.742 262.355H333.726C333.885 262.355 334.037 262.418 334.149 262.531C334.262 262.643 334.325 262.795 334.325 262.954V274.776C334.325 274.935 334.262 275.087 334.149 275.2C334.037 275.312 333.885 275.375 333.726 275.375ZM291.341 274.177H333.127V263.553H291.341V274.177Z" fill="#EDEDED"/>
<path d="M333.726 262.954H290.742V274.775H333.726V262.954Z" fill="#D1D3D4"/>
<path d="M333.726 275.375H290.742C290.584 275.375 290.431 275.312 290.319 275.2C290.207 275.087 290.144 274.935 290.144 274.776V262.954C290.144 262.795 290.207 262.643 290.319 262.531C290.431 262.418 290.584 262.355 290.742 262.355H333.726C333.885 262.355 334.037 262.418 334.149 262.531C334.262 262.643 334.325 262.795 334.325 262.954V274.776C334.325 274.935 334.262 275.087 334.149 275.2C334.037 275.312 333.885 275.375 333.726 275.375ZM291.341 274.177H333.127V263.553H291.341V274.177Z" fill="#EDEDED"/>
<path d="M301.222 275.375C301.063 275.375 300.911 275.312 300.798 275.2C300.686 275.087 300.623 274.935 300.623 274.776V262.954C300.626 262.796 300.69 262.646 300.802 262.534C300.913 262.422 301.064 262.358 301.222 262.355C301.381 262.355 301.533 262.418 301.645 262.531C301.758 262.643 301.821 262.795 301.821 262.954V274.776C301.821 274.935 301.758 275.087 301.645 275.2C301.533 275.312 301.381 275.375 301.222 275.375Z" fill="#EDEDED"/>
<path d="M312.228 275.375C312.069 275.375 311.917 275.312 311.805 275.2C311.692 275.087 311.629 274.935 311.629 274.776V262.954C311.632 262.796 311.697 262.646 311.808 262.534C311.92 262.422 312.07 262.358 312.228 262.355C312.387 262.355 312.539 262.418 312.652 262.531C312.764 262.643 312.827 262.795 312.827 262.954V274.776C312.827 274.935 312.764 275.087 312.652 275.2C312.539 275.312 312.387 275.375 312.228 275.375Z" fill="#EDEDED"/>
<path d="M323.198 275.375C323.04 275.375 322.887 275.312 322.775 275.2C322.663 275.087 322.6 274.935 322.6 274.776V262.954C322.6 262.795 322.663 262.643 322.775 262.531C322.887 262.418 323.04 262.355 323.198 262.355C323.356 262.358 323.507 262.422 323.618 262.534C323.73 262.646 323.794 262.796 323.797 262.954V274.776C323.797 274.935 323.734 275.087 323.622 275.2C323.51 275.312 323.357 275.375 323.198 275.375Z" fill="#EDEDED"/>
<path d="M337.858 273.926H286.599V278.309H337.858V273.926Z" fill="white"/>
<path d="M337.858 278.908H286.599C286.441 278.905 286.29 278.841 286.179 278.729C286.067 278.618 286.003 278.467 286 278.309V273.926C286 273.767 286.063 273.615 286.175 273.502C286.288 273.39 286.44 273.327 286.599 273.327H337.858C338.017 273.327 338.169 273.39 338.282 273.502C338.394 273.615 338.457 273.767 338.457 273.926V278.309C338.457 278.468 338.394 278.62 338.282 278.733C338.169 278.845 338.017 278.908 337.858 278.908ZM287.198 277.71H337.259V274.525H287.198V277.71Z" fill="#EDEDED"/>
<path d="M333.726 278.31H290.742V282.525H333.726V278.31Z" fill="white"/>
<path d="M333.726 283.112H290.742C290.584 283.112 290.431 283.049 290.319 282.937C290.207 282.824 290.144 282.672 290.144 282.513V278.31C290.144 278.151 290.207 277.998 290.319 277.886C290.431 277.774 290.584 277.711 290.742 277.711H333.726C333.885 277.711 334.037 277.774 334.149 277.886C334.262 277.998 334.325 278.151 334.325 278.31V282.513C334.325 282.672 334.262 282.824 334.149 282.937C334.037 283.049 333.885 283.112 333.726 283.112ZM291.341 281.914H333.127V278.908H291.341V281.914Z" fill="#EDEDED"/>
<path d="M333.726 278.31H290.742V282.525H333.726V278.31Z" fill="#EDEDED"/>
<path d="M333.726 282.514H290.742V294.334H333.726V282.514Z" fill="white"/>
<path d="M333.726 294.934H290.742C290.584 294.934 290.431 294.871 290.319 294.759C290.207 294.646 290.144 294.494 290.144 294.335V282.514C290.144 282.355 290.207 282.202 290.319 282.09C290.431 281.978 290.584 281.915 290.742 281.915H333.726C333.885 281.915 334.037 281.978 334.149 282.09C334.262 282.202 334.325 282.355 334.325 282.514V294.335C334.325 294.494 334.262 294.646 334.149 294.759C334.037 294.871 333.885 294.934 333.726 294.934ZM291.341 293.736H333.127V283.112H291.341V293.736Z" fill="#EDEDED"/>
<path d="M333.726 282.514H290.742V294.334H333.726V282.514Z" fill="#D1D3D4"/>
<path d="M333.726 294.934H290.742C290.584 294.934 290.431 294.871 290.319 294.759C290.207 294.646 290.144 294.494 290.144 294.335V282.514C290.144 282.355 290.207 282.202 290.319 282.09C290.431 281.978 290.584 281.915 290.742 281.915H333.726C333.885 281.915 334.037 281.978 334.149 282.09C334.262 282.202 334.325 282.355 334.325 282.514V294.335C334.325 294.494 334.262 294.646 334.149 294.759C334.037 294.871 333.885 294.934 333.726 294.934ZM291.341 293.736H333.127V283.112H291.341V293.736Z" fill="#EDEDED"/>
<path d="M301.222 294.934C301.063 294.934 300.911 294.871 300.798 294.759C300.686 294.646 300.623 294.494 300.623 294.335V282.514C300.626 282.356 300.69 282.205 300.802 282.093C300.913 281.982 301.064 281.918 301.222 281.915C301.381 281.915 301.533 281.978 301.645 282.09C301.758 282.202 301.821 282.355 301.821 282.514V294.335C301.821 294.494 301.758 294.646 301.645 294.759C301.533 294.871 301.381 294.934 301.222 294.934Z" fill="#EDEDED"/>
<path d="M312.228 294.934C312.069 294.934 311.917 294.871 311.805 294.759C311.692 294.646 311.629 294.494 311.629 294.335V282.514C311.632 282.356 311.697 282.205 311.808 282.093C311.92 281.982 312.07 281.918 312.228 281.915C312.387 281.915 312.539 281.978 312.652 282.09C312.764 282.202 312.827 282.355 312.827 282.514V294.335C312.827 294.494 312.764 294.646 312.652 294.759C312.539 294.871 312.387 294.934 312.228 294.934Z" fill="#EDEDED"/>
<path d="M323.198 294.934C323.04 294.934 322.887 294.871 322.775 294.759C322.663 294.646 322.6 294.494 322.6 294.335V282.514C322.6 282.355 322.663 282.202 322.775 282.09C322.887 281.978 323.04 281.915 323.198 281.915C323.356 281.918 323.507 281.982 323.618 282.093C323.73 282.205 323.794 282.356 323.797 282.514V294.335C323.797 294.494 323.734 294.646 323.622 294.759C323.51 294.871 323.357 294.934 323.198 294.934Z" fill="#EDEDED"/>
<path d="M337.858 293.485H286.599V297.868H337.858V293.485Z" fill="white"/>
<path d="M337.858 298.467H286.599C286.441 298.464 286.29 298.4 286.179 298.288C286.067 298.177 286.003 298.026 286 297.868V293.485C286 293.326 286.063 293.174 286.175 293.062C286.288 292.949 286.44 292.886 286.599 292.886H337.858C338.017 292.886 338.169 292.949 338.282 293.062C338.394 293.174 338.457 293.326 338.457 293.485V297.868C338.457 298.027 338.394 298.18 338.282 298.292C338.169 298.404 338.017 298.467 337.858 298.467ZM287.198 297.27H337.259V294.084H287.198V297.27Z" fill="#EDEDED"/>
<path d="M333.726 297.869H290.742V302.085H333.726V297.869Z" fill="white"/>
<path d="M333.726 302.683H290.742C290.584 302.683 290.431 302.62 290.319 302.508C290.207 302.396 290.144 302.243 290.144 302.084V297.869C290.144 297.71 290.207 297.558 290.319 297.445C290.431 297.333 290.584 297.27 290.742 297.27H333.726C333.885 297.27 334.037 297.333 334.149 297.445C334.262 297.558 334.325 297.71 334.325 297.869V302.084C334.325 302.243 334.262 302.396 334.149 302.508C334.037 302.62 333.885 302.683 333.726 302.683ZM291.341 301.486H333.127V298.468H291.341V301.486Z" fill="#EDEDED"/>
<path d="M333.726 297.869H290.742V302.085H333.726V297.869Z" fill="#EDEDED"/>
<path d="M333.726 302.073H290.742V313.895H333.726V302.073Z" fill="white"/>
<path d="M333.726 314.506H290.742C290.584 314.506 290.431 314.443 290.319 314.33C290.207 314.218 290.144 314.066 290.144 313.907V302.085C290.144 301.926 290.207 301.774 290.319 301.661C290.431 301.549 290.584 301.486 290.742 301.486H333.726C333.885 301.486 334.037 301.549 334.149 301.661C334.262 301.774 334.325 301.926 334.325 302.085V313.907C334.325 314.066 334.262 314.218 334.149 314.33C334.037 314.443 333.885 314.506 333.726 314.506ZM291.341 313.308H333.127V302.684H291.341V313.308Z" fill="#EDEDED"/>
<path d="M333.726 302.073H290.742V313.895H333.726V302.073Z" fill="#D1D3D4"/>
<path d="M333.726 314.506H290.742C290.584 314.506 290.431 314.443 290.319 314.33C290.207 314.218 290.144 314.066 290.144 313.907V302.085C290.144 301.926 290.207 301.774 290.319 301.661C290.431 301.549 290.584 301.486 290.742 301.486H333.726C333.885 301.486 334.037 301.549 334.149 301.661C334.262 301.774 334.325 301.926 334.325 302.085V313.907C334.325 314.066 334.262 314.218 334.149 314.33C334.037 314.443 333.885 314.506 333.726 314.506ZM291.341 313.308H333.127V302.684H291.341V313.308Z" fill="#EDEDED"/>
<path d="M301.222 314.506C301.064 314.503 300.913 314.438 300.802 314.327C300.69 314.215 300.626 314.065 300.623 313.907V302.085C300.623 301.926 300.686 301.774 300.798 301.661C300.911 301.549 301.063 301.486 301.222 301.486C301.381 301.486 301.533 301.549 301.645 301.661C301.758 301.774 301.821 301.926 301.821 302.085V313.907C301.821 314.066 301.758 314.218 301.645 314.33C301.533 314.443 301.381 314.506 301.222 314.506Z" fill="#EDEDED"/>
<path d="M312.228 314.506C312.07 314.503 311.92 314.438 311.808 314.327C311.697 314.215 311.632 314.065 311.629 313.907V302.085C311.629 301.926 311.692 301.774 311.805 301.661C311.917 301.549 312.069 301.486 312.228 301.486C312.387 301.486 312.539 301.549 312.652 301.661C312.764 301.774 312.827 301.926 312.827 302.085V313.907C312.827 314.066 312.764 314.218 312.652 314.33C312.539 314.443 312.387 314.506 312.228 314.506Z" fill="#EDEDED"/>
<path d="M323.198 314.506C323.04 314.506 322.887 314.443 322.775 314.33C322.663 314.218 322.6 314.066 322.6 313.907V302.085C322.6 301.926 322.663 301.774 322.775 301.661C322.887 301.549 323.04 301.486 323.198 301.486C323.357 301.486 323.51 301.549 323.622 301.661C323.734 301.774 323.797 301.926 323.797 302.085V313.907C323.794 314.065 323.73 314.215 323.618 314.327C323.507 314.438 323.356 314.503 323.198 314.506Z" fill="#EDEDED"/>
<path d="M145.824 288.035H86V313.951H145.824V288.035Z" fill="#EDEDED"/>
<path opacity="0.54" d="M145.824 292.126H86V294.988H145.824V292.126Z" fill="white"/>
<path d="M126.965 288.035H104.869L110.847 142.411L110.908 140.939H120.926L125.96 263.643L126.965 288.035Z" fill="#EDEDED"/>
<path opacity="0.1" d="M126.488 276.433L126.965 288.035H104.869L110.847 142.411L110.938 142.472C111.344 260.405 126.488 276.433 126.488 276.433Z" fill="black"/>
<path opacity="0.1" d="M120.489 300.988H111.344V313.94H120.489V300.988Z" fill="black"/>
<path d="M115.912 127.134L118.998 136.605H128.955L120.896 142.462L123.981 151.943L115.912 146.086L107.853 151.943L110.939 142.462L102.879 136.605H112.837L115.912 127.134Z" fill="#D5D5D5"/>
<g clip-path="url(#clip0)">
<path d="M400.027 314.149L328.935 314.069C328.687 314.069 328.449 314.008 328.274 313.9C328.099 313.792 328 313.646 328 313.493V145.597C328.005 145.445 328.105 145.301 328.279 145.193C328.454 145.086 328.689 145.024 328.935 145.021H336.55V118.77C336.554 118.619 336.655 118.474 336.829 118.366C337.003 118.259 337.239 118.197 337.485 118.194H346.091V97.2536C346.091 97.1009 346.189 96.9544 346.365 96.8464C346.54 96.7384 346.778 96.6777 347.026 96.6777H359.785V71.7053C359.785 71.5526 359.884 71.4061 360.059 71.2981C360.235 71.1901 360.473 71.1294 360.721 71.1294H368.298C368.546 71.1294 368.784 71.1901 368.959 71.2981C369.135 71.4061 369.233 71.5526 369.233 71.7053V96.6777H381.974C382.222 96.6777 382.46 96.7384 382.635 96.8464C382.81 96.9544 382.909 97.1009 382.909 97.2536V118.194H391.515C391.763 118.194 392.001 118.255 392.176 118.363C392.352 118.471 392.45 118.618 392.45 118.77V145.021H400.064C400.311 145.024 400.546 145.086 400.721 145.193C400.895 145.301 400.995 145.445 401 145.597V313.573C401.002 313.651 400.978 313.727 400.93 313.799C400.881 313.87 400.81 313.934 400.719 313.988C400.628 314.043 400.519 314.085 400.4 314.113C400.281 314.14 400.154 314.153 400.027 314.149ZM329.833 312.928L399.054 312.997V146.173H391.44C391.192 146.173 390.954 146.113 390.779 146.005C390.603 145.897 390.505 145.75 390.505 145.597V119.346H381.899C381.651 119.346 381.413 119.286 381.237 119.178C381.062 119.07 380.963 118.923 380.963 118.77V97.8296H368.223C367.975 97.8296 367.737 97.7689 367.561 97.6609C367.386 97.5529 367.288 97.4064 367.288 97.2536V72.2813H361.581V97.2536C361.581 97.4064 361.483 97.5529 361.307 97.6609C361.132 97.7689 360.894 97.8296 360.646 97.8296H347.887V118.77C347.887 118.923 347.788 119.07 347.613 119.178C347.438 119.286 347.2 119.346 346.952 119.346H338.346V145.597C338.346 145.75 338.247 145.897 338.072 146.005C337.896 146.113 337.658 146.173 337.41 146.173H329.796L329.833 312.928Z" fill="#EDEDED"/>
</g>
<defs>
<clipPath id="clip0">
<rect width="523" height="315" fill="white"/>
</clipPath>
</defs>
</svg>
