<?xml version="1.0" encoding="utf-8"?>
<!-- Generator: Adobe Illustrator 24.1.1, SVG Export Plug-In . SVG Version: 6.00 Build 0)  -->
<svg version="1.1" id="Слой_1" xmlns="http://www.w3.org/2000/svg" xmlns:xlink="http://www.w3.org/1999/xlink" x="0px" y="0px"
	 viewBox="0 0 352 244" style="enable-background:new 0 0 352 244;" xml:space="preserve">
<style type="text/css">
	.st0{fill:none;}
	.st1{fill:#EDEDED;}
</style>
<rect x="-86" y="-71" class="st0" width="523" height="315"/>
<g>
	<rect x="169.5" y="141.1" class="st1" width="17.5" height="7"/>
	<path class="st1" d="M352,173.4l-37-5.7V74.6c0-0.2-0.1-0.3-0.3-0.4c-0.2-0.1-0.4-0.2-0.7-0.2h-7.6V47.7c0-0.2-0.1-0.3-0.3-0.4
		c-0.2-0.1-0.4-0.2-0.7-0.2h-8.6V26.2c0-0.2-0.1-0.3-0.3-0.4c-0.2-0.1-0.4-0.2-0.7-0.2h-12.7v-25c0-0.2-0.1-0.3-0.3-0.4
		c-0.2-0.1-0.4-0.2-0.7-0.2h-7.6c-0.2,0-0.5,0.1-0.7,0.2s-0.3,0.3-0.3,0.4v25H261c-0.2,0-0.5,0.1-0.7,0.2s-0.3,0.3-0.3,0.4v20.9
		h-8.6c-0.2,0-0.5,0.1-0.7,0.2c-0.2,0.1-0.3,0.3-0.3,0.4V74h-7.6c-0.2,0-0.5,0.1-0.7,0.2s-0.3,0.3-0.3,0.4V85h-41.4
		c-0.2,0-0.3,0.1-0.4,0.2c-0.1,0.1-0.2,0.3-0.2,0.4V90c0,0.2,0.1,0.3,0.2,0.4c0.1,0.1,0.3,0.2,0.4,0.2h3.5v3.5l0,0l0,0v10.4h-3.5
		c-0.2,0-0.3,0.1-0.4,0.2c-0.1,0.1-0.2,0.3-0.2,0.4v4.4c0,0.2,0.1,0.3,0.2,0.4c0.1,0.1,0.3,0.2,0.4,0.2h3.5v3.6v10.4h-3.5
		c-0.2,0-0.3,0.1-0.4,0.2c-0.1,0.1-0.2,0.3-0.2,0.4v4.4c0,0.2,0.1,0.3,0.2,0.4c0.1,0.1,0.3,0.2,0.4,0.2h3.5v3.6v10.4h-3.5
		c-0.2,0-0.3,0.1-0.4,0.2c-0.1,0.1-0.2,0.3-0.2,0.4v4.4c0,0.2,0.1,0.3,0.2,0.4c0.1,0.1,0.3,0.2,0.4,0.2h3.5v3.6v10.4h-3.5
		c-0.2,0-0.3,0.1-0.4,0.2c-0.1,0.1-0.2,0.3-0.2,0.4v4.4c0,0.2,0.1,0.3,0.2,0.4c0.1,0.1,0.3,0.2,0.4,0.2h3.5v3.6v10.4h-3.5
		c-0.2,0-0.3,0.1-0.4,0.2c-0.1,0.1-0.2,0.3-0.2,0.4v4.4c0,0.2,0.1,0.3,0.2,0.4c0.1,0.1,0.3,0.2,0.4,0.2h3.5v3.6v10.4h-3.5
		c-0.2,0-0.3,0.1-0.4,0.2c-0.1,0.1-0.2,0.3-0.2,0.4v4.4c0,0.2,0.1,0.3,0.2,0.4c0.1,0.1,0.3,0.2,0.4,0.2h3.5v3.6l0,0l0,0v0.6H196v-56
		h-5.6v-8H166v8h-6v50H65v6H48v4.9h-7l-0.5-11.6l0,0l-0.5-13L35.3,79l2.7,1.9l-3-9.2v-0.4l8-5.8H33l-3.1-9.4l-3.1,9.5h-10l8,5.8l0,0
		v0.4l-3,9.2l2.7-1.9l-5.7,138H0v4.1v2.9v19h48v0.2h156.2c0,0.1,0.1,0.1,0.1,0.2c0.1,0.1,0.3,0.2,0.4,0.2h43c0.2,0,0.3-0.1,0.4-0.2
		c0.1-0.1,0.1-0.2,0.1-0.3l65.8-0.1c0.1,0,0.3,0,0.4,0s0.2-0.1,0.3-0.1c0.1-0.1,0.2-0.1,0.2-0.2c0-0.1,0.1-0.1,0.1-0.2V242h37V173.4
		z M243.8,75.1h7.6c0.2,0,0.5-0.1,0.7-0.2s0.3-0.3,0.3-0.4V48.3h8.6c0.2,0,0.5-0.1,0.7-0.2c0.2-0.1,0.3-0.3,0.3-0.4V26.8h12.8
		c0.2,0,0.5-0.1,0.7-0.2s0.3-0.3,0.3-0.4v-25h5.7v25c0,0.2,0.1,0.3,0.3,0.4c0.2,0.1,0.4,0.2,0.7,0.2H295v20.9c0,0.2,0.1,0.3,0.3,0.4
		c0.2,0.1,0.4,0.2,0.7,0.2h8.6v26.3c0,0.2,0.1,0.3,0.3,0.4c0.2,0.1,0.4,0.2,0.7,0.2h7.6v92.3l-28.2-4.4v78.8h-36.7v-10.8l0,0l0,0
		v-3.6h3.5c0.2,0,0.3-0.1,0.4-0.2c0.1-0.1,0.2-0.3,0.2-0.4v-4.4c0-0.2-0.1-0.3-0.2-0.4c-0.1-0.1-0.3-0.2-0.4-0.2h-3.5v-10.4l0,0l0,0
		v-3.6h3.5c0.2,0,0.3-0.1,0.4-0.2c0.1-0.1,0.2-0.3,0.2-0.4v-4.4c0-0.2-0.1-0.3-0.2-0.4c-0.1-0.1-0.3-0.2-0.4-0.2h-3.5v-10.4v-3.6
		h3.5c0.2,0,0.3-0.1,0.4-0.2c0.1-0.1,0.2-0.3,0.2-0.4v-4.4c0-0.2-0.1-0.3-0.2-0.4c-0.1-0.1-0.3-0.2-0.4-0.2h-3.5v-10.4v-3.6h3.5
		c0.2,0,0.3-0.1,0.4-0.2c0.1-0.1,0.2-0.3,0.2-0.4v-4.4c0-0.2-0.1-0.3-0.2-0.4c-0.1-0.1-0.3-0.2-0.4-0.2h-3.5v-10.4v-3.6h3.5
		c0.2,0,0.3-0.1,0.4-0.2c0.1-0.1,0.2-0.3,0.2-0.4v-4.4c0-0.2-0.1-0.3-0.2-0.4c-0.1-0.1-0.3-0.2-0.4-0.2h-3.5v-10.4v-3.6h3.5
		c0.2,0,0.3-0.1,0.4-0.2c0.1-0.1,0.2-0.3,0.2-0.4v-4.4c0-0.2-0.1-0.3-0.2-0.4c-0.1-0.1-0.3-0.2-0.4-0.2h-3.5v-10.4v-3.4h3.5
		c0.2,0,0.3-0.1,0.4-0.2c0.1-0.1,0.2-0.3,0.2-0.4v-4.4c0-0.2-0.1-0.3-0.2-0.4c-0.1-0.1-0.3-0.2-0.4-0.2h-3.5V94.1l0,0l0,0v-3.6h3.5
		c0.2,0,0.3-0.1,0.4-0.2c0.1-0.1,0.2-0.3,0.2-0.4v-4.4c0-0.2-0.1-0.3-0.2-0.4c-0.1-0.1-0.3-0.2-0.4-0.2h-8.1L243.8,75.1z"/>
</g>
</svg>
