<svg width="315" height="157" viewBox="0 0 315 157" fill="none" xmlns="http://www.w3.org/2000/svg">
<path d="M130 94.3181H0V156.323H130V94.3181Z" fill="#E6E6E6"/>
<path d="M138 155.417V6.71729H181.726V155.417H138Z" fill="white" stroke="#C4C4C4" stroke-width="2"/>
<path d="M144.861 6.21809V1.2146H174.864V6.21809H144.861Z" fill="white" stroke="#C4C4C4" stroke-width="2"/>
<path d="M157.667 52.2537H74.054C73.7166 52.2537 73.393 52.1196 73.1544 51.881C72.9158 51.6424 72.7817 51.3187 72.7817 50.9813V40.5859C72.7817 40.2484 72.9158 39.9248 73.1544 39.6861C73.393 39.4475 73.7166 39.3135 74.054 39.3135H157.667C158.004 39.3135 158.328 39.4475 158.566 39.6861C158.805 39.9248 158.939 40.2484 158.939 40.5859V50.9813C158.939 51.3187 158.805 51.6424 158.566 51.881C158.328 52.1196 158.004 52.2537 157.667 52.2537ZM75.3263 49.7089H156.394V41.8583H75.3263V49.7089Z" fill="#C4C4C4"/>
<path d="M160.39 60.9692V154.959H129.677V104.255C129.677 100.59 128.222 97.0758 125.631 94.4844C123.04 91.8931 119.525 90.4372 115.861 90.4372C112.196 90.4372 108.682 91.8931 106.091 94.4844C103.5 97.0758 102.044 100.59 102.044 104.255V154.959H71.3318V60.9692H160.39Z" fill="#EDEDED"/>
<path d="M166.624 62.2406H65.0974C64.7962 62.2455 64.5029 62.1434 64.27 61.9523C64.037 61.7613 63.8794 61.4937 63.8252 61.1974L62.0185 51.1974C61.9867 51.0132 61.9959 50.8242 62.0455 50.6439C62.095 50.4636 62.1837 50.2965 62.3051 50.1544C62.4266 50.0123 62.5779 49.8987 62.7483 49.8217C62.9186 49.7447 63.1039 49.7062 63.2908 49.7089H168.43C168.617 49.7062 168.802 49.7447 168.973 49.8217C169.143 49.8987 169.294 50.0123 169.416 50.1544C169.537 50.2965 169.626 50.4636 169.675 50.6439C169.725 50.8242 169.734 51.0132 169.702 51.1974L167.896 61.1974C167.842 61.4937 167.684 61.7613 167.451 61.9523C167.218 62.1434 166.925 62.2455 166.624 62.2406ZM66.1152 59.6961H165.529L166.878 52.2534H64.8048L66.1152 59.6961Z" fill="#C4C4C4"/>
<path d="M84.8357 155.895C84.5033 155.895 84.1845 155.711 83.9494 155.384C83.7143 155.057 83.5823 154.614 83.5823 154.151V62.3675C83.5823 61.9052 83.7143 61.4618 83.9494 61.1349C84.1845 60.8079 84.5033 60.6243 84.8357 60.6243C85.1682 60.6243 85.487 60.8079 85.7221 61.1349C85.9571 61.4618 86.0892 61.9052 86.0892 62.3675V154.151C86.0892 154.614 85.9571 155.057 85.7221 155.384C85.487 155.711 85.1682 155.895 84.8357 155.895Z" fill="#C4C4C4"/>
<path d="M181 76.3169L315 86.5765V155.323H181V76.3169Z" fill="#EDEDED"/>
<path d="M200.497 103.319H187.528C186.858 103.319 186.215 103.213 185.74 103.026C185.266 102.838 185 102.584 185 102.319C185 102.053 185.266 101.799 185.74 101.611C186.215 101.424 186.858 101.319 187.528 101.319H200.472C201.142 101.319 201.785 101.424 202.26 101.611C202.734 101.799 203 102.053 203 102.319C203 102.584 202.734 102.838 202.26 103.026C201.785 103.213 201.142 103.319 200.472 103.319H200.497Z" fill="#C4C4C4"/>
<path d="M225.468 103.319H212.532C211.86 103.319 211.216 103.213 210.742 103.026C210.267 102.838 210 102.584 210 102.319C210 102.053 210.267 101.799 210.742 101.611C211.216 101.424 211.86 101.319 212.532 101.319H225.468C226.14 101.319 226.784 101.424 227.259 101.611C227.733 101.799 228 102.053 228 102.319C228 102.584 227.733 102.838 227.259 103.026C226.784 103.213 226.14 103.319 225.468 103.319Z" fill="#C4C4C4"/>
<path d="M250.468 103.319H237.532C236.86 103.319 236.216 103.213 235.741 103.026C235.267 102.838 235 102.584 235 102.319C235 102.053 235.267 101.799 235.741 101.611C236.216 101.424 236.86 101.319 237.532 101.319H250.468C251.14 101.319 251.784 101.424 252.259 101.611C252.733 101.799 253 102.053 253 102.319C253 102.584 252.733 102.838 252.259 103.026C251.784 103.213 251.14 103.319 250.468 103.319Z" fill="#C4C4C4"/>
<path d="M276.331 103.319H262.669C261.961 103.319 261.282 103.213 260.782 103.026C260.281 102.838 260 102.584 260 102.319C260 102.053 260.281 101.799 260.782 101.611C261.282 101.424 261.961 101.319 262.669 101.319H276.331C277.039 101.319 277.718 101.424 278.218 101.611C278.719 101.799 279 102.053 279 102.319C279 102.584 278.719 102.838 278.218 103.026C277.718 103.213 277.039 103.319 276.331 103.319Z" fill="#C4C4C4"/>
<path d="M301.472 103.319H288.528C287.858 103.319 287.215 103.213 286.74 103.026C286.266 102.838 286 102.584 286 102.319C286 102.053 286.266 101.799 286.74 101.611C287.215 101.424 287.858 101.319 288.528 101.319H301.472C302.142 101.319 302.785 101.424 303.26 101.611C303.734 101.799 304 102.053 304 102.319C304 102.584 303.734 102.838 303.26 103.026C302.785 103.213 302.142 103.319 301.472 103.319Z" fill="#C4C4C4"/>
<path d="M200.497 117.32H187.528C186.858 117.32 186.215 117.214 185.74 117.027C185.266 116.839 185 116.585 185 116.32C185 116.055 185.266 115.8 185.74 115.613C186.215 115.425 186.858 115.32 187.528 115.32H200.472C201.142 115.32 201.785 115.425 202.26 115.613C202.734 115.8 203 116.055 203 116.32C203 116.585 202.734 116.839 202.26 117.027C201.785 117.214 201.142 117.32 200.472 117.32H200.497Z" fill="#C4C4C4"/>
<path d="M225.468 117.32H212.532C211.86 117.32 211.216 117.214 210.742 117.027C210.267 116.839 210 116.585 210 116.32C210 116.055 210.267 115.8 210.742 115.613C211.216 115.425 211.86 115.32 212.532 115.32H225.468C226.14 115.32 226.784 115.425 227.259 115.613C227.733 115.8 228 116.055 228 116.32C228 116.585 227.733 116.839 227.259 117.027C226.784 117.214 226.14 117.32 225.468 117.32Z" fill="#C4C4C4"/>
<path d="M250.468 117.32H237.532C236.86 117.32 236.216 117.214 235.741 117.027C235.267 116.839 235 116.585 235 116.32C235 116.055 235.267 115.8 235.741 115.613C236.216 115.425 236.86 115.32 237.532 115.32H250.468C251.14 115.32 251.784 115.425 252.259 115.613C252.733 115.8 253 116.055 253 116.32C253 116.585 252.733 116.839 252.259 117.027C251.784 117.214 251.14 117.32 250.468 117.32Z" fill="#C4C4C4"/>
<path d="M276.331 117.32H262.669C261.961 117.32 261.282 117.214 260.782 117.027C260.281 116.839 260 116.585 260 116.32C260 116.055 260.281 115.8 260.782 115.613C261.282 115.425 261.961 115.32 262.669 115.32H276.331C277.039 115.32 277.718 115.425 278.218 115.613C278.719 115.8 279 116.055 279 116.32C279 116.585 278.719 116.839 278.218 117.027C277.718 117.214 277.039 117.32 276.331 117.32Z" fill="#C4C4C4"/>
<path d="M301.472 117.32H288.528C287.858 117.32 287.215 117.214 286.74 117.027C286.266 116.839 286 116.585 286 116.32C286 116.055 286.266 115.8 286.74 115.613C287.215 115.425 287.858 115.32 288.528 115.32H301.472C302.142 115.32 302.785 115.425 303.26 115.613C303.734 115.8 304 116.055 304 116.32C304 116.585 303.734 116.839 303.26 117.027C302.785 117.214 302.142 117.32 301.472 117.32Z" fill="#C4C4C4"/>
<path d="M200.497 131.321H187.528C186.858 131.321 186.215 131.216 185.74 131.028C185.266 130.841 185 130.587 185 130.321C185 130.056 185.266 129.802 185.74 129.614C186.215 129.427 186.858 129.321 187.528 129.321H200.472C201.142 129.321 201.785 129.427 202.26 129.614C202.734 129.802 203 130.056 203 130.321C203 130.587 202.734 130.841 202.26 131.028C201.785 131.216 201.142 131.321 200.472 131.321H200.497Z" fill="#C4C4C4"/>
<path d="M200.497 145.322H187.528C186.858 145.322 186.215 145.217 185.74 145.029C185.266 144.842 185 144.587 185 144.322C185 144.057 185.266 143.803 185.74 143.615C186.215 143.428 186.858 143.322 187.528 143.322H200.472C201.142 143.322 201.785 143.428 202.26 143.615C202.734 143.803 203 144.057 203 144.322C203 144.587 202.734 144.842 202.26 145.029C201.785 145.217 201.142 145.322 200.472 145.322H200.497Z" fill="#C4C4C4"/>
<path d="M225.468 131.321H212.532C211.86 131.321 211.216 131.216 210.742 131.028C210.267 130.841 210 130.587 210 130.321C210 130.056 210.267 129.802 210.742 129.614C211.216 129.427 211.86 129.321 212.532 129.321H225.468C226.14 129.321 226.784 129.427 227.259 129.614C227.733 129.802 228 130.056 228 130.321C228 130.587 227.733 130.841 227.259 131.028C226.784 131.216 226.14 131.321 225.468 131.321Z" fill="#C4C4C4"/>
<path d="M225.468 145.322H212.532C211.86 145.322 211.216 145.217 210.742 145.029C210.267 144.842 210 144.587 210 144.322C210 144.057 210.267 143.803 210.742 143.615C211.216 143.428 211.86 143.322 212.532 143.322H225.468C226.14 143.322 226.784 143.428 227.259 143.615C227.733 143.803 228 144.057 228 144.322C228 144.587 227.733 144.842 227.259 145.029C226.784 145.217 226.14 145.322 225.468 145.322Z" fill="#C4C4C4"/>
<path d="M250.468 131.321H237.532C236.86 131.321 236.216 131.216 235.741 131.028C235.267 130.841 235 130.587 235 130.321C235 130.056 235.267 129.802 235.741 129.614C236.216 129.427 236.86 129.321 237.532 129.321H250.468C251.14 129.321 251.784 129.427 252.259 129.614C252.733 129.802 253 130.056 253 130.321C253 130.587 252.733 130.841 252.259 131.028C251.784 131.216 251.14 131.321 250.468 131.321Z" fill="#C4C4C4"/>
<path d="M250.468 145.322H237.532C236.86 145.322 236.216 145.217 235.741 145.029C235.267 144.842 235 144.587 235 144.322C235 144.057 235.267 143.803 235.741 143.615C236.216 143.428 236.86 143.322 237.532 143.322H250.468C251.14 143.322 251.784 143.428 252.259 143.615C252.733 143.803 253 144.057 253 144.322C253 144.587 252.733 144.842 252.259 145.029C251.784 145.217 251.14 145.322 250.468 145.322Z" fill="#C4C4C4"/>
<path d="M276.331 131.321H262.669C261.961 131.321 261.282 131.216 260.782 131.028C260.281 130.841 260 130.587 260 130.321C260 130.056 260.281 129.802 260.782 129.614C261.282 129.427 261.961 129.321 262.669 129.321H276.331C277.039 129.321 277.718 129.427 278.218 129.614C278.719 129.802 279 130.056 279 130.321C279 130.587 278.719 130.841 278.218 131.028C277.718 131.216 277.039 131.321 276.331 131.321Z" fill="#C4C4C4"/>
<path d="M276.331 145.322H262.669C261.961 145.322 261.282 145.217 260.782 145.029C260.281 144.842 260 144.587 260 144.322C260 144.057 260.281 143.803 260.782 143.615C261.282 143.428 261.961 143.322 262.669 143.322H276.331C277.039 143.322 277.718 143.428 278.218 143.615C278.719 143.803 279 144.057 279 144.322C279 144.587 278.719 144.842 278.218 145.029C277.718 145.217 277.039 145.322 276.331 145.322Z" fill="#C4C4C4"/>
<path d="M301.472 131.321H288.528C287.858 131.321 287.215 131.216 286.74 131.028C286.266 130.841 286 130.587 286 130.321C286 130.056 286.266 129.802 286.74 129.614C287.215 129.427 287.858 129.321 288.528 129.321H301.472C302.142 129.321 302.785 129.427 303.26 129.614C303.734 129.802 304 130.056 304 130.321C304 130.587 303.734 130.841 303.26 131.028C302.785 131.216 302.142 131.321 301.472 131.321Z" fill="#C4C4C4"/>
<path d="M301.472 145.322H288.528C287.858 145.322 287.215 145.217 286.74 145.029C286.266 144.842 286 144.587 286 144.322C286 144.057 286.266 143.803 286.74 143.615C287.215 143.428 287.858 143.322 288.528 143.322H301.472C302.142 143.322 302.785 143.428 303.26 143.615C303.734 143.803 304 144.057 304 144.322C304 144.587 303.734 144.842 303.26 145.029C302.785 145.217 302.142 145.322 301.472 145.322Z" fill="#C4C4C4"/>
</svg>
