<svg width="520" height="300" viewBox="0 0 520 300" fill="none" xmlns="http://www.w3.org/2000/svg">
<path opacity="0.43" d="M232.663 30.804C234.671 26.6188 230.655 26.5142 228.918 24.9342L226.679 27.1001L230.695 30.1763L226.76 31.2226L225.464 33.3152C227.292 33.4303 228.717 33.4198 230.113 33.6291C231.508 33.8383 232.843 34.3092 234.219 34.5917C235.247 34.6822 236.269 34.8324 237.281 35.0416C239.62 35.774 240.684 34.9684 240.554 33.3675C238.204 32.5409 236.207 31.8294 234.199 31.1598C233.696 31.0033 233.182 30.8844 232.663 30.804ZM284.386 63.4385C286.193 64.4325 285.992 65.7718 285.149 67.3726C284.775 68.2996 284.493 69.2637 284.305 70.25C287.317 69.1409 289.636 68.3248 291.945 67.3831C294.415 66.3368 294.726 64.3279 292.728 62.4654C291.865 61.6702 290.931 60.9587 290.138 60.1008C289.832 59.6199 289.615 59.0843 289.496 58.5208C288.787 58.9355 288.115 59.4152 287.488 59.9543C286.404 61.0529 285.48 62.2771 284.416 63.449C284.57 61.5702 284.858 59.706 285.279 57.8721C285.942 55.7063 285.108 54.0322 283.502 53.4462C280.38 52.3162 280.912 50.4747 281.896 48.4449C280.952 46.8126 280.099 45.3059 279.045 43.5063C276.926 45.9232 274.898 47.9845 273.182 50.2968C272.533 51.3161 272.271 52.5509 272.449 53.7601C272.619 54.9215 273.453 55.9678 274.065 57.0246L272.148 57.7152C273.152 58.0186 273.593 58.343 273.925 58.2383C275.551 57.6629 276.886 57.349 276.495 59.9752C276.495 60.2054 276.675 60.6867 276.816 60.7076C279.496 61.1471 281.183 64.558 284.386 63.428V63.4385ZM224.842 127.159C224.671 127.159 224.471 127.274 224.33 127.159C220.114 125.066 217.664 126.521 216.891 131.103C216.65 132.485 215.355 133.698 214.451 134.922C213.971 135.494 213.421 135.997 212.815 136.419C211.57 137.402 210.345 138.417 209.02 139.265C207.896 139.976 206.651 140.468 205.255 141.159L202.043 138.658C203.137 138.197 204.673 137.946 205.677 137.057C208.839 134.263 211.851 131.26 214.813 128.237C215.051 127.933 215.216 127.574 215.293 127.189C215.37 126.805 215.357 126.407 215.254 126.029C212.895 121.09 217.092 117.889 218.166 113.881C218.618 112.197 219.742 110.742 220.254 109.016C220.686 107.582 220.314 105.793 220.977 104.538C221.911 102.727 223.527 101.305 224.742 99.6409C226.75 96.9205 226.268 95.4556 223.155 94.0326C221.931 93.4676 220.746 92.7875 219.14 91.94C217.995 93.4153 216.65 95.1941 215.254 96.91C214.562 97.7575 213.899 98.8561 212.996 99.2328C210.496 100.279 207.675 100.677 206.179 103.418C205.771 104.263 205.406 105.129 205.085 106.013L205.837 106.274L207.213 104.349L207.745 104.778C205.737 107.593 203.729 110.397 202.053 112.803C203.418 113.609 204.934 113.986 205.064 114.645C205.208 116.329 205.16 118.026 204.924 119.699L205.617 119.887L202.324 122.398C201.239 119.468 200.316 116.664 199.191 113.923C198.529 112.275 197.757 110.678 196.882 109.141C196.059 107.708 195.286 106.002 194.051 105.103C191.351 103.073 189.493 100.792 189.604 97.1193C189.604 96.5124 188.991 95.8951 188.66 95.2882C188.078 95.7591 187.235 96.1253 186.994 96.753C186.825 97.1667 186.738 97.6115 186.738 98.0609C186.738 98.5103 186.825 98.9551 186.994 99.3688C188.489 101.87 186.873 104.391 187.194 106.892C187.194 107.185 186.11 107.99 185.568 107.938C185.188 107.888 184.823 107.755 184.496 107.547C184.169 107.34 183.888 107.063 183.671 106.735C183.319 106.118 183.52 105.176 183.47 104.213L180.98 104.014C178.801 103.837 176.583 104.203 174.956 101.817C174.485 101.127 172.487 101.577 170.589 101.472C170.589 101.409 170.007 100.373 170.298 99.8606C171.143 98.6261 172.094 97.4739 173.139 96.4182C171.131 95.8951 168.702 93.7083 166.533 98.0086L167.126 95.2778L153.362 92.5155C151.806 93.499 150.641 96.9728 147.579 94.7546C144.908 92.8294 146.394 90.2764 146.946 87.0537L152.297 88.9266C156.685 84.4798 152.388 81.3513 150.551 77.8776C150.551 77.8776 150.229 78.0136 150.219 78.1287C150.099 82.1256 147.83 84.2392 144.447 85.4529C144.175 85.6406 143.953 85.8979 143.804 86.2001C143.655 86.5024 143.582 86.8395 143.593 87.1793C144.035 88.9057 143.242 89.5754 141.897 90.2136C140.593 90.8984 139.326 91.6564 138.102 92.4841L137.098 86.8759C134.688 86.2481 132.821 85.8296 130.994 85.2645C129.731 84.935 128.399 85.0461 127.202 85.5809C126.005 86.1157 125.01 87.0448 124.368 88.2256C124.108 88.6383 123.765 88.9869 123.363 89.2472C122.961 89.5074 122.509 89.673 122.039 89.7323C121.577 89.7323 120.704 88.4767 120.593 87.6397C120.222 85.0134 120.111 82.3349 119.9 79.6877C115.714 80.0435 114.158 82.9731 116.336 87.2839C114.82 87.2839 113.033 87.7443 112.702 87.2002C112.088 86.2685 111.777 85.1565 111.813 84.0269C111.849 82.8973 112.231 81.8094 112.903 80.9224C112.481 79.604 111.708 77.9404 111.899 77.7834C114.198 76.1512 114.981 72.5519 118.394 72.3008C118.879 72.1451 119.323 71.8754 119.692 71.5126C120.061 71.1498 120.345 70.7035 120.523 70.2081C121.246 67.8853 121.617 65.437 122.119 63.0409C122.38 61.7539 122.591 60.467 122.882 58.9289C123.284 59.3997 123.505 59.5358 123.515 59.6822C123.515 60.038 123.414 60.3937 123.394 60.7285C123.264 62.999 122.752 65.3428 123.113 67.54C123.575 70.3128 125.01 72.8972 125.522 75.6699C126.225 79.5308 131.546 84.2078 135.993 82.4918C138.564 81.4455 141.083 78.4321 141.254 75.5025C141.394 74.0413 141.394 72.5692 141.254 71.108C140.832 67.8958 141.525 64.5371 141.646 61.2412C141.668 60.0384 141.533 58.838 141.244 57.6733C140.897 56.4608 140.485 55.2696 140.009 54.1054L138.614 53.8229C138.694 52.379 138.764 51.2594 138.825 50.3177L140.471 50.4956C140.421 49.4493 140.371 48.3298 140.32 47.1474L138.132 47.7752C138.212 46.3627 138.282 45.1804 138.323 44.4898C137.56 43.998 137.048 43.4435 136.455 43.3389C135.633 43.3347 134.811 43.3872 133.996 43.4958C132.704 43.5031 131.414 43.3945 130.141 43.1714C128.133 42.7634 124.599 44.5003 124.207 46.5092C123.615 49.5226 122.009 51.0711 119.107 51.1025C118.278 51.1028 117.463 51.3301 116.744 51.7616C116.025 52.1931 115.428 52.8137 115.011 53.5613C114.02 55.2361 112.665 56.6446 111.056 57.6733C108.265 59.1277 104.831 59.2533 103.566 63.1978C103.175 64.422 101.327 66.1484 100.404 65.9915C96.6793 65.3742 97.1612 68.2411 96.7495 70.2395C96.1873 73.0018 94.9525 74.4248 92.0511 73.933C86.0275 73.0018 80.0039 72.2275 73.7192 71.3486L75.8576 74.4143C71.9322 75.9628 76.6306 79.8133 74.5725 81.9059C73.8096 80.6085 73.3277 78.9658 72.2534 78.1078C68.9003 75.4188 65.5873 75.7222 62.2141 78.5786C61.6781 79.0453 61.0613 79.4005 60.3969 79.6249C58.2284 80.326 56.0298 80.9224 53.7509 81.592L53.1485 84.8983C51.1406 83.9985 49.9058 84.5217 49.4239 86.562C49.3501 86.7901 49.233 87.0003 49.0795 87.1801C48.9259 87.3598 48.7392 87.5055 48.5304 87.6083C46.6129 88.4453 46.5225 89.8369 46.8638 91.7935C47.1349 93.3212 46.5426 95.0476 46.8638 96.5647C47.3449 98.2717 47.9767 99.9284 48.7513 101.514C47.1425 102.751 45.4665 103.89 43.7316 104.925C40.3583 106.578 40.3382 110.292 39.1235 113.149C38.6215 114.321 39.8363 116.581 37.7983 117.114C35.7603 117.648 35.2985 115.733 34.6359 114.216C34.5355 113.986 33.0898 114.028 32.628 114.415C30.9715 115.681 29.4756 117.156 27.9095 118.6L28.1805 119.803C29.3853 120.232 30.9615 120.306 31.7044 121.174C32.9931 122.565 33.8892 124.299 34.2945 126.186C34.4652 127.379 33.1701 128.864 32.4071 130.141C32.0959 130.674 31.2526 130.926 31.0317 131.47C30.6703 132.37 30.1985 133.615 30.5197 134.337C31.4333 136.366 31.0518 137.716 29.5158 139.16C28.7829 139.851 27.9095 141.399 28.1906 142.048C29.4317 144.571 30.8128 147.016 32.3268 149.372C32.1879 150.681 32.2115 152.003 32.3971 153.306C32.8689 155.472 34.0034 157.491 34.405 159.668C34.7965 161.614 36.2823 164.753 31.9353 163.979C31.8349 163.979 31.7044 164.23 31.5638 164.324L24.5363 169.44C22.3176 164.816 19.0548 163.968 15.5811 166.636L19.9683 171.125L19.4563 171.7L11.6055 167.285L11.3244 170.821C10.6518 171.303 9.81852 172.401 9.03545 172.37C6.97049 172.138 4.92397 171.754 2.91142 171.219L2.57008 168.969L0 169.44C0.471851 170.727 0.451772 172.349 0.0702759 174.954C1.71363e-07 175.446 0.351378 176.001 0.411615 176.524C0.845523 179.072 1.10719 181.649 1.19469 184.235C1.02358 186.698 0.688123 189.145 0.190748 191.559L1.06417 191.204C1.94764 192.899 2.74075 194.656 3.74469 196.268C5.13013 198.496 4.2567 202.232 7.8508 203.027C7.97347 203.091 8.08114 203.182 8.16616 203.294C8.25119 203.406 8.31147 203.536 8.34273 203.676C8.96517 206.815 11.2441 209.681 9.46714 212.643L14.3162 216.598L15.6313 221.411C13.2018 221.411 13.6234 223.242 14.3965 224.55C16.0329 227.416 15.7317 230.545 16.1734 233.6C16.3373 234.341 16.6443 235.04 17.0758 235.653C17.5073 236.267 18.0543 236.782 18.6833 237.168C20.8016 238.361 24.2853 237.168 24.5061 235.62C24.7672 233.82 24.7471 231.968 25.1286 230.2C25.5101 228.431 25.8313 226.506 26.8654 225.24C29.3853 222.164 32.0658 219.318 31.4735 214.986C33.4813 214.515 35.188 214.212 36.8646 213.678C38.8725 213.03 40.6093 212.391 42.8883 213.27C44.7957 214.003 47.3558 216.336 49.2833 213.27L48.8316 210.362C49.9459 209.933 50.9198 209.838 51.4518 209.315C52.6164 208.091 51.5824 202.472 51.2511 200.892C50.6788 198.12 51.0402 195.138 51.0402 192.239C51.0402 192.156 51.3414 192.041 51.5221 191.999C52.756 191.744 53.9174 191.198 54.9165 190.401C55.9156 189.605 56.7259 188.58 57.2847 187.405C57.857 186.296 60.2363 186.202 61.8025 185.648C63.971 184.884 65.0652 185.784 64.995 188.232C64.995 189.383 64.995 190.534 64.995 191.685L65.6074 191.863L68.3381 188.64C70.2054 188.64 71.4704 188.64 72.7454 188.64C73.4381 188.64 74.1308 188.776 74.8336 188.86C76.1159 189.129 77.4207 189.266 78.7289 189.268C79.5557 189.074 80.4199 189.151 81.2033 189.488C81.9868 189.825 82.6512 190.406 83.106 191.151C84.632 193.369 87.8647 194.175 88.0655 197.586C88.0655 197.785 88.5273 197.921 88.6578 198.162C89.1598 199.082 89.5613 200.066 90.1035 200.955C90.6456 201.845 89.7923 203.958 92.1114 204.094C92.5129 204.094 92.7639 206.93 93.1153 208.457C93.4667 209.985 93.6875 211.125 95.5749 209.797C96.0102 209.575 96.4849 209.451 96.9688 209.431C97.4528 209.411 97.9353 209.497 98.386 209.681C100.314 210.508 101.398 212.601 103.697 213.239C104.992 213.605 106.197 215.185 106.94 216.524C107.831 218.514 108.57 220.575 109.148 222.687C110.825 220.479 111.819 220.783 112.813 222.384C113.62 223.561 114.492 224.689 115.423 225.763C117.772 223.733 118.143 222.153 116.427 219.893C115.513 218.69 115.503 216.755 115.011 214.85L120.202 213.898L120.623 211.366L125.211 210.1C125.143 209.558 125.143 209.009 125.211 208.468C125.603 207.223 125.834 205.266 126.597 204.984C127.701 204.575 129.247 205.297 130.552 205.737C131.496 206.051 132.299 206.867 133.253 207.128C141.545 209.441 149.717 212.486 158.492 211.952C162.508 211.711 165.058 214.808 168.31 216.294C168.632 216.441 168.832 217.34 168.772 217.822C168.541 219.914 168.19 221.892 167.869 223.964C168.872 224.487 170.408 224.79 171.131 225.732C172.396 227.364 173.019 229.54 175.509 229.771C175.719 229.771 176 230.953 175.95 231.56C175.767 232.381 175.487 233.175 175.117 233.924C180.317 233.757 184.695 230.168 189.172 231.466C188.811 233.558 187.827 235.651 188.399 236.823C191.742 243.99 192.957 251.618 193.71 259.402C193.79 260.25 193.991 261.087 194.192 262.259C196.933 259.046 198.278 258.712 198.93 260.972C199.934 264.456 202.444 265.523 205.155 266.643C207.986 264.404 210.446 265.345 211.48 268.986C211.76 270.084 212.175 271.139 212.714 272.125C213.779 273.904 215.013 275.589 216.168 277.357L215.606 278.539L222.172 278.079C222.172 278.079 222.292 278.832 222.332 279.575C222.453 281.668 225.856 284.807 226.79 283.582C228.597 281.301 230.675 282.536 232.582 282.17C234.133 281.803 235.589 281.089 236.849 280.077C239.018 278.466 242.17 278.267 244.268 276.604C248.655 273.13 252.45 276.478 256.466 277.148C257.209 277.273 258.022 278.393 258.394 279.24C258.9 280.41 259.77 281.367 260.863 281.958C261.956 282.548 263.208 282.737 264.417 282.494C264.889 282.358 265.421 282.076 265.863 282.222C268.774 283.269 271.626 283.75 274.657 282.588C276.977 281.699 277.499 280.433 276.384 278.142C275.19 275.683 274.467 273.182 276.726 270.817C277.627 269.785 278.478 268.706 279.276 267.584C283.221 268.871 287.187 270.368 291.263 271.393C293.19 271.885 294.064 272.492 294.274 274.657C294.676 279.439 300.79 282.63 304.705 280.088C308.621 277.545 312.466 278.456 316.321 279.209C318.118 279.554 319.684 281.301 321.341 282.348C321.521 282.076 321.702 281.814 321.873 281.542C322.706 284.587 324.644 285.382 327.435 285.026C329.131 284.817 330.898 285.267 332.625 285.225C334.083 285.266 335.538 285.058 336.932 284.608C339.381 283.635 341.64 282.149 344.09 281.197C345.596 280.611 346.539 280.151 346.851 278.225C347.423 274.731 352.252 272.69 355.354 274.323C356.057 274.689 357.181 275.264 357.603 274.961C360.183 273.14 362.542 273.789 364.952 275.212C365.298 275.362 365.678 275.402 366.046 275.327C367.682 275.118 369.389 275.411 370.463 273.36C371.256 271.843 372.792 270.765 373.786 269.332C374.057 268.955 373.596 267.971 373.375 267.239C373.254 266.831 372.712 266.423 372.782 266.109C373.535 262.269 374.027 258.335 375.262 254.673C376.407 251.262 375.142 247.987 371.748 247.987C372.652 246.229 373.104 244.011 374.419 243.048C377.313 241.083 380.367 239.385 383.545 237.974C384.459 237.748 385.411 237.748 386.326 237.974C387.932 238.089 390.261 239.02 390.994 238.288C392.46 236.77 393.102 237.775 394.227 238.288C397.158 239.711 399.146 242.065 401.104 244.681C404.115 248.688 407.368 252.486 410.721 256.19C411.514 257.069 413.321 257.843 414.265 257.487C417.169 256.463 420.331 256.563 423.17 257.77C423.854 258.04 424.555 258.26 425.268 258.429C427.276 258.91 428.702 259.727 429.465 262.133C429.866 263.368 432.055 264.738 433.39 264.686C435.037 264.623 436.683 263.221 438.229 262.238C439.014 261.803 439.629 261.096 439.966 260.239C440.91 256.19 444.353 254.317 446.873 250.571C446.984 254.035 450.397 255.97 448.048 259.046C447.927 259.203 448.299 259.737 448.379 260.093C448.971 263.075 449.734 266.046 450.076 269.06C450.237 271.574 450.257 274.097 450.136 276.614H449.062C442.406 276.886 439.414 282.222 442.636 288.176C443.183 289.295 443.937 290.291 444.855 291.105C446.953 292.78 448.038 294.401 445.678 296.714C445.548 296.839 445.678 297.258 445.678 297.645L450.005 299.654L449.162 297.205L451.491 293.93L452.164 295.73L453.318 293.407L455.326 295.008L455.206 294.318C456.571 293.972 458.298 294.066 459.221 293.209C463.458 289.369 466.249 284.671 466.641 278.56C466.892 274.302 467.494 270.075 467.896 265.827C468.247 262.133 468.739 258.44 468.809 254.736C468.9 249.42 468.749 244.084 468.528 238.769C468.428 236.331 468.377 233.694 467.454 231.549C465.788 227.981 463.865 224.55 461.701 221.285C459.051 217.037 459.232 212.088 458.238 207.432C458.76 208.478 459.477 209.405 460.348 210.158C461.218 210.911 462.225 211.474 463.308 211.816C464.562 212.318 465.466 213.909 466.38 215.143C466.932 215.865 467.112 216.88 467.604 217.675C469.662 221.044 471.751 224.393 473.899 227.699C474.566 228.551 475.276 229.365 476.027 230.137C477.152 231.508 478.316 232.868 479.3 234.322C479.876 235.384 480.382 236.485 480.816 237.618C481.539 238.793 482.167 240.028 482.694 241.311C483.447 243.833 485.224 244.942 487.121 246.009L487.763 245.58L485.997 240.181C488.386 238.403 490.474 238.235 492.362 241.071C492.201 239.7 492.07 238.173 491.297 237.649C489.139 236.185 486.81 234.51 484.37 234.113C483.613 234.062 482.883 233.798 482.259 233.348C481.635 232.898 481.139 232.28 480.826 231.56C479.712 229.16 478.792 226.669 478.076 224.11C477.914 223.52 477.87 222.901 477.948 222.293C478.026 221.684 478.223 221.099 478.527 220.574C479.049 219.873 480.595 219.726 481.65 219.841C483.101 220.106 484.528 220.498 485.916 221.013L486.147 220.249C484.796 219.84 483.496 219.267 482.272 218.544C478.176 215.457 474.05 212.381 470.225 208.96C467.574 206.584 463.769 205.078 463.388 200.589C463.388 200.139 462.504 199.773 462.033 199.365C460.266 197.816 458.438 196.341 456.742 194.709C455.637 193.535 454.592 192.302 453.609 191.015L452.335 193.631L456.27 195.724C455.702 196.599 455.256 197.553 454.945 198.559C454.789 199.619 454.911 200.704 455.296 201.698C456.2 203.676 457.374 205.507 458.438 207.39C457.515 208.3 456.862 208.541 456.19 206.982C455.539 205.976 454.755 205.07 453.86 204.293V202.608L443.741 199.7L439.725 202.671L440.99 204.241L438.621 209.838L437.948 209.566V206.992L436.322 206.898C436.322 206.093 436.231 205.371 436.181 204.335C434.294 206.239 434.294 206.239 434.966 209.566L431.272 204.335C429.435 205.737 428.029 208.436 424.987 206.427C425.59 204.858 426.573 203.288 426.764 201.573C427.326 196.644 429.485 192.156 429.274 186.924C429.033 180.646 431.513 174.368 431.453 168.091C431.402 163.999 432.346 161.174 435.137 158.946C437.145 157.314 438.711 154.311 442.436 155.388V151.852C444.514 151.59 446.662 151.37 447.214 148.629C447.265 148.409 447.757 148.221 448.068 148.137C449.072 147.865 450.146 147.656 451.652 147.321C450.648 146.662 449.724 146.421 449.584 145.951C449.032 144.13 448.198 141.985 451.481 142.111C454.041 142.205 455.206 138.061 458.127 139.62L456.21 142.759C458.479 143.806 459.723 142.927 460.567 141.064C460.928 140.28 461.27 139.495 461.621 138.7C462.454 137.58 462.394 135.896 463.147 134.839C464.261 133.29 465.948 132.192 468.006 130.361C466.339 130.099 465.336 129.586 464.844 129.911C461.45 132.192 461.621 128.592 460.768 127.148C460.276 126.311 460.707 124.909 460.577 123.779C460.256 121.163 460.577 118.004 459.262 116.089C458.68 115.331 458.328 114.411 458.249 113.444C458.17 112.477 458.369 111.507 458.82 110.659C459.629 108.933 460.667 107.334 461.902 105.908C462.767 105.044 463.716 104.276 464.733 103.617L468.237 109.466L468.94 107.049L470.566 109.476L471.279 109.204C470.971 107.886 470.833 106.532 470.867 105.176C471.289 102.445 468.387 99.3898 471.58 96.8786C471.531 96.1578 471.256 95.4738 470.797 94.9325C469.903 94.0327 468.618 93.5199 467.785 92.5678C465.898 90.3601 466.912 87.692 469.181 87.3363C469.291 88.3826 468.99 90.0253 469.592 90.6112C471.841 92.7771 474.22 94.7965 475.616 97.7052C475.736 97.9563 476.288 97.9982 476.62 98.1133C475.61 101.031 475.649 104.232 476.73 107.122C478.186 111.161 478.808 115.492 479.742 119.772C480.746 124.376 481.599 128.979 478.166 133.374C481.589 133.73 481.85 136.209 481.86 138.919C481.86 139.966 481.71 141.284 482.232 141.975C484.722 145.271 486.94 149.1 490.133 151.391C498.566 157.554 507.461 163.047 516.486 169.022C516.155 165.234 516.075 161.875 515.482 158.632C515.132 156.984 514.301 155.489 513.103 154.352C509.9 151.391 509.74 148.075 513.043 145.522C511.798 144.779 510.533 144.099 509.358 143.293C507.421 141.975 506.678 136.555 508.003 134.922C508.854 134.024 509.415 132.872 509.609 131.627C509.609 129.743 508.023 129.796 506.597 129.597C503.686 129.21 502.812 126.458 501.889 124.177C501.658 123.591 503.214 122.231 504.369 120.64C503.294 119.845 501.668 117.732 500.554 117.993C497.05 118.82 496.036 116.999 495.273 114.185C494.922 112.866 494.058 112.448 493.014 113.494C492.291 114.341 491.62 115.236 491.006 116.173C489.059 115.691 488.286 113.756 487.693 111.914C486.75 108.974 486.047 106.023 483.577 103.868C482.744 103.146 481.569 101.639 483.577 100.509C483.738 100.415 483.517 99.5781 483.467 99.0863L485.545 99.3165C485.224 97.0565 484.912 94.9848 484.541 92.233L488.476 95.1731L489.099 94.5349C488.717 93.4886 488.386 92.4422 487.934 91.4587C486.428 88.0373 488.045 85.1809 489.801 82.6697C490.384 81.8431 492.512 82.2093 493.928 81.9582C494.401 81.8529 494.864 81.7058 495.313 81.5188C494.5 78.8821 493.737 76.4441 493.024 73.9853C492.582 72.4786 492.231 70.9615 491.829 69.4443C491.317 67.5714 490.153 65.5939 490.394 63.8361C490.986 59.5881 489.952 55.5493 489.822 51.4268C489.822 49.8574 491.036 48.1833 491.92 46.6975C492.495 45.9833 493.172 45.3657 493.928 44.8665C493.084 42.5646 491.92 41.2672 489.48 41.2672C486.468 41.2672 483.507 40.8172 480.515 40.6498C479.993 40.7293 479.508 40.9783 479.13 41.3613C477.533 42.6483 475.967 43.9771 474.391 45.2955C478.236 37.4795 478.407 36.3181 476.108 32.4572C474.702 30.103 472.634 29.9461 470.084 30.8459C469.974 29.6112 469.893 28.6696 469.833 27.9058L475.646 28.5231C475.867 26.849 476.098 25.3841 476.248 23.8984C476.459 21.879 478.256 20.2258 479.762 21.0001C481.71 21.9732 482.643 21.2303 483.547 19.5248C483.969 18.7296 484.691 17.6624 485.404 17.5473C488.998 16.9404 489.42 14.7432 488.486 11.6879C487.792 11.6946 487.097 11.6526 486.408 11.5624C486.015 11.3954 485.649 11.166 485.324 10.8823C484.119 8.39205 481.921 9.23956 480.686 9.45929C480.876 7.6387 481.419 5.54608 481.158 3.56855C481.007 2.45946 479.511 1.53871 478.708 0.628418C476.499 1.7689 473.919 3.06632 471.369 4.42653C470.898 4.64346 470.505 5.00957 470.245 5.47284C469.241 7.88982 468.237 10.3486 467.233 12.933C466.681 12.933 465.858 13.0691 465.024 13.1005C461.621 13.2051 459.784 16.3545 456.933 17.6414C454.081 18.9284 451.843 21.2617 449.072 22.5486C443.891 24.9761 439.725 28.3243 437.346 33.8279C436.817 34.8949 436.14 35.8749 435.338 36.7366C433.922 38.4317 432.416 40.043 431.101 41.5078L433.822 44.1654C435.739 44.3538 437.406 44.1654 438.631 44.8037C439.253 45.149 439.093 47.0637 439.293 48.2774C436.703 46.0697 434.565 51.4164 432.436 48.2774C434.996 46.3941 432.868 45.6826 431.744 44.6363C428.621 46.9277 428.621 46.9277 429.505 49.0517C430.318 51.0083 428.36 56.5119 426.413 56.7421C424.686 56.9409 424.405 58.1128 423.913 59.1277C422.487 61.9423 421.564 65.1754 417.809 65.8136C417.424 65.4462 417.069 65.0473 416.745 64.6208C414.737 61.6493 412.558 60.9169 409.476 62.6014C407.827 63.467 406.357 64.6628 405.151 66.1206C403.946 67.5784 403.027 69.2696 402.449 71.0975C401.445 74.0376 400.351 74.7177 397.68 74.0376C396.782 73.9519 395.878 73.9906 394.99 74.1527C393.745 74.205 391.646 74.7073 391.365 74.1527C389.468 70.5116 387.4 72.8135 385.392 73.7133C384.388 74.1527 383.605 74.9375 382.631 75.3351C378.274 77.1033 373.897 78.7879 369.058 80.6817L371.527 82.5023C371.076 83.0045 370.795 83.3707 370.473 83.6846C368.325 85.704 368.415 86.8863 370.835 88.4663C371.778 89.0731 372.692 89.7637 373.666 90.4543C373.254 90.9042 372.953 91.3227 372.903 91.2913C371.026 90.1717 370.032 91.6889 368.887 92.7143C368.144 93.363 367.361 93.9699 366.568 94.5558C365.775 95.1417 364.329 95.6021 364.018 96.4915C362.924 99.4107 361.478 99.6304 359.279 97.7994C358.592 97.3356 357.87 96.9297 357.121 96.5856C357.673 99.8292 358.125 102.675 358.717 105.866C356.8 105.385 354.932 105.417 353.698 104.496C352.198 103.155 350.949 101.538 350.013 99.7246C349.179 98.3483 348.597 96.8228 348.296 95.2254C347.764 92.0865 343.899 90.088 341.118 91.2913C339.11 92.1388 336.861 92.7143 335.315 90.6949C331.952 93.0805 334.874 95.9265 335.195 98.8352L324.764 100.436C325.206 97.6633 324.764 97.1193 322.917 97.475C319.845 98.0505 316.803 98.7724 313.711 99.4421L312.185 97.6843C311.633 98.4062 311.08 99.4107 310.88 99.3479C309.86 98.8584 308.886 98.2736 307.968 97.6006C307.313 97.6211 306.666 97.7519 306.051 97.9877C304.474 98.6992 304.916 100.677 306.773 101.179C303.862 101.901 302.487 106.023 298.792 105.04C300.469 102.947 302.135 100.991 303.711 98.9399C305.458 96.6589 307.115 94.2942 308.811 91.9714C309.193 91.4378 309.574 90.9251 309.946 90.381C312.355 86.9805 310.95 79.5935 307.476 77.6579C305.308 76.4441 300.74 77.2812 298.672 79.1959C298.421 79.4261 297.879 79.332 297.196 79.4261C297.708 78.1078 298.099 77.1033 298.551 75.9105L293.722 74.8642L296.664 73.0122L291.905 70.6685C289.104 73.1483 286.303 75.6385 287.026 80.3574H282.368C282.87 81.2363 283.191 81.8013 283.502 82.3767C279.798 83.6219 279.798 83.6218 279.416 81.4037C274.577 82.0942 271.485 83.6218 272.107 84.5426C267.088 86.2167 261.988 87.9117 256.878 89.6486C254.95 90.3078 254.689 91.7412 256.014 93.5827C256.757 94.629 257.38 95.7486 258.374 97.3495C255.773 97.6365 253.158 97.7762 250.543 97.768C247.977 97.4862 245.426 97.0636 242.903 96.5019C242.792 97.5483 242.742 98.2179 242.652 98.8352C242.381 100.823 241.447 103.02 241.979 104.736C242.702 107.049 244.549 108.995 245.925 111.098C244.248 111.234 241.728 110.857 241.688 110.282C241.407 106.484 238.305 104.799 236.548 102.162C236.259 101.969 235.928 101.856 235.585 101.834C235.242 101.812 234.9 101.882 234.59 102.037C232.121 103.742 234.64 105.082 234.791 106.881C234.091 106.524 233.442 106.066 232.864 105.521C232.341 105.155 231.619 104.611 231.147 104.757C230.675 104.904 229.822 105.804 229.852 106.264C229.981 107.47 230.275 108.65 230.725 109.769C231.059 110.469 231.456 111.135 231.91 111.757C227.733 110.711 227.422 110.324 228.476 107.206C229.219 105.019 230.223 102.926 230.916 100.729C231.058 99.716 231.058 98.6868 230.916 97.6738C229.45 99.9025 228.587 101.859 227.191 103.156C225.796 104.454 223.979 104.956 222.553 105.709C222.808 106.736 222.956 107.789 222.995 108.848C222.704 111.255 223.858 114.226 220.696 115.608C220.425 115.733 220.274 116.225 220.134 116.581C219.29 118.809 218.467 121.048 217.644 123.256L221.308 125.139C222.854 123.905 223.316 124.187 224.782 127.232L224.842 127.159ZM186.813 91.9609C187.154 88.9162 187.074 86.4155 187.767 84.1659C188.771 80.891 190.166 78.0032 193.971 76.8417C197.776 75.6803 200.999 73.3052 204.603 71.6102C207.269 70.3838 209.993 69.2977 212.765 68.3562C213.693 68.2044 214.638 68.2044 215.566 68.3562C219.451 68.3562 223.346 68.6073 227.191 68.1992C228.607 68.0527 229.962 66.4414 231.207 65.2905C231.488 65.0184 231.137 63.3339 230.916 63.292C229.342 63.0561 227.757 62.9198 226.167 62.884C226.107 62.884 226.037 63.0618 225.966 63.0618C223.858 63.0618 221.178 63.857 219.742 62.8107C216.73 60.6134 213.718 61.44 210.707 61.461C208.648 61.5061 206.594 61.6667 204.552 61.9423C204.028 62.089 203.575 62.4317 203.277 62.9049C201.129 66.0438 198.067 67.2889 194.593 67.8121C194.37 67.849 194.149 67.8979 193.931 67.9586C193.8 68.8689 193.68 69.6745 193.569 70.3546C190.839 70.6162 188.279 70.3546 186.753 73.2947C186.382 73.7539 185.921 74.1256 185.402 74.3854C184.883 74.6451 184.317 74.7869 183.741 74.8014C181.08 74.9061 179.856 75.8478 179.725 78.4949C179.665 80.0121 179.725 81.5292 179.725 83.2661L182.365 82.2198L180.127 85.2541L185.658 92.4318L186.813 91.9609ZM352.844 61.6179C351.338 64.4011 352.232 66.6716 353.256 69.2351C354.28 71.7985 356.268 71.3277 357.804 72.0078C358.858 72.5205 359.942 71.5683 360.474 69.9779C360.916 68.6701 362.231 67.6342 363.265 66.5984C363.857 66.002 364.831 65.7822 365.343 65.1335C367.04 62.9781 366.829 60.6658 365.514 58.3116L356.177 59.6718L357.603 62.455L352.844 61.6179ZM436.502 19.891C435.99 16.344 439.454 13.0586 436.854 9.54299C433.842 10.4742 432.085 12.4308 432.477 15.4547C432.738 17.4636 433.26 19.9747 436.502 19.9015V19.891ZM366.729 56.2294L368.365 59.8078C376.537 58.9917 378.204 57.5268 375.724 53.3625L368.465 57.3594L366.729 56.2294ZM217.011 22.5068V24.8191H224.521C224.019 20.1526 219.953 20.2154 217.373 18.2483C216.841 21.1152 216.941 21.2198 220.816 21.5442L217.011 22.5068ZM366.197 73.9958V78.5682L373.565 75.2827C370.855 71.6102 368.305 71.4114 366.197 73.9958ZM167.015 89.0731C165.78 87.1375 167.015 84.302 164.144 84.2078C162.477 84.2078 160.048 85.0553 160.48 87.1898C161.192 90.5275 164.003 89.1464 167.015 89.0731ZM513.575 229.352V238.936H514.358C514.82 236.624 515.101 234.249 515.773 231.999C517.42 226.422 517.49 226.443 516.336 225.606C515.061 226.621 516.828 230.325 513.575 229.352ZM516.416 169.472L515.071 169.618C515.071 172.035 515.02 174.452 515.071 176.859C515.071 177.225 515.804 177.643 516.265 177.905C516.446 177.989 517.109 177.56 517.099 177.392C516.898 174.724 516.587 172.056 516.376 169.472H516.416ZM488.707 102.508C487.342 105.469 489.089 107.174 490.715 109.612C490.626 108.09 490.626 106.563 490.715 105.04C490.896 103.408 490.424 102.529 488.667 102.55L488.707 102.508ZM308.079 94.629L308.39 96.0416C309.394 96.1985 310.649 96.8263 311.261 96.4078C311.873 95.9892 312.265 94.493 312.677 93.4781L311.843 92.5678L308.079 94.629ZM510.874 248.144L511.466 247.966C511.818 245.382 512.179 242.797 512.531 240.202L510.181 241.249C510.432 243.592 510.653 245.863 510.884 248.123L510.874 248.144ZM431.834 199.187L432.467 202.797L434.956 202.315V198.716L431.834 199.187ZM224.551 89.0731L220.535 90.7891L220.656 91.8354L224.591 92.7875L224.551 89.0731ZM517.902 222.844L518.996 222.959L520 215.907L518.705 215.729C518.451 218.108 518.183 220.479 517.902 222.844Z" fill="#EDEDED"/>
</svg>
