<svg width="25" height="26" viewBox="0 0 25 26" fill="none" xmlns="http://www.w3.org/2000/svg">
<path d="M9.37492 11.9863C11.6761 11.9863 13.5416 10.1206 13.5416 7.81909C13.5416 5.51759 11.6761 3.65186 9.37492 3.65186C7.07373 3.65186 5.20825 5.51759 5.20825 7.81909C5.20825 10.1206 7.07373 11.9863 9.37492 11.9863Z" stroke="#A84002" stroke-width="2" stroke-linecap="round" stroke-linejoin="round"/>
<path d="M3.125 22.4023V20.319C3.125 19.2139 3.56399 18.1541 4.34539 17.3727C5.12679 16.5913 6.1866 16.1523 7.29167 16.1523H11.4583C12.5634 16.1523 13.6232 16.5913 14.4046 17.3727C15.186 18.1541 15.625 19.2139 15.625 20.319V22.4023" stroke="#A84002" stroke-width="2" stroke-linecap="round" stroke-linejoin="round"/>
<path d="M16.6667 11.9862L18.7501 14.0695L22.9167 9.90283" stroke="#A84002" stroke-width="2" stroke-linecap="round" stroke-linejoin="round"/>
</svg>
