<svg width="20" height="20" viewBox="0 0 20 20" fill="none" xmlns="http://www.w3.org/2000/svg">
<g clip-path="url(#clip0)">
<path fill-rule="evenodd" clip-rule="evenodd" d="M19.2417 0.758333C18.7333 0.25 18.1333 0 17.4333 0H2.56667C1.85833 0 1.25833 0.25 0.758333 0.758333C0.258333 1.26667 0 1.86667 0 2.56667V17.4333C0 18.1417 0.25 18.7417 0.758333 19.2417C1.26667 19.7417 1.86667 20 2.56667 20H17.4333C18.1417 20 18.7417 19.75 19.2417 19.2417C19.7417 18.7333 20 18.1333 20 17.4333V2.56667C20 1.85833 19.75 1.25833 19.2417 0.758333ZM7.175 7.20833C7.95833 6.45 8.90833 6.06667 10.0083 6.06667C11.1167 6.06667 12.0667 6.45 12.85 7.20833C13.6333 7.96667 14.025 8.88333 14.025 9.95833C14.025 11.0333 13.6333 11.95 12.85 12.7083C12.0667 13.4667 11.1167 13.85 10.0083 13.85C8.90833 13.85 7.95833 13.4667 7.175 12.7083C6.39167 11.95 6 11.0333 6 9.95833C6 8.88333 6.39167 7.96667 7.175 7.20833ZM17.725 16.9C17.725 17.125 17.65 17.3167 17.4917 17.4667C17.4193 17.5414 17.3325 17.6006 17.2365 17.6407C17.1405 17.6809 17.0374 17.701 16.9333 17.7H3.01667C2.91131 17.7017 2.80672 17.6818 2.70929 17.6417C2.61186 17.6016 2.52363 17.542 2.45 17.4667C2.37573 17.3926 2.31745 17.3041 2.27875 17.2067C2.24005 17.1092 2.22175 17.0048 2.225 16.9V8.45833H4.05833C3.88463 9.01105 3.79749 9.58731 3.8 10.1667C3.8 11.8333 4.40833 13.2583 5.625 14.4333C6.84167 15.6083 8.3 16.2 10.0167 16.2C11.1111 16.2088 12.1887 15.9301 13.1417 15.3917C14.0769 14.8733 14.8588 14.1173 15.4083 13.2C15.96 12.2879 16.2484 11.2409 16.2417 10.175C16.2417 9.58333 16.15 9.01667 15.9833 8.46667H17.7417V16.9H17.725ZM17.725 5.275C17.725 5.525 17.6333 5.74167 17.4667 5.91667C17.3829 6.00107 17.2828 6.06752 17.1724 6.11193C17.0621 6.15635 16.9439 6.17781 16.825 6.175H14.5583C14.3083 6.175 14.0917 6.08333 13.9167 5.91667C13.8323 5.83288 13.7658 5.73277 13.7214 5.62244C13.677 5.51212 13.6555 5.3939 13.6583 5.275V3.125C13.6583 2.88333 13.75 2.675 13.9167 2.49167C14.0833 2.30833 14.3083 2.225 14.5583 2.225H16.825C17.075 2.225 17.2917 2.31667 17.4667 2.49167C17.6417 2.66667 17.725 2.88333 17.725 3.125V5.275Z" fill="#382A2A"/>
</g>
<defs>
<clipPath id="clip0">
<rect width="20" height="20" fill="white"/>
</clipPath>
</defs>
</svg>
