<svg width="22" height="23" viewBox="0 0 22 23" fill="none" xmlns="http://www.w3.org/2000/svg">
<path fill-rule="evenodd" clip-rule="evenodd" d="M15.4461 0.961914H6.55392C2.94007 0.961914 0 3.90199 0 7.51583V16.408C0 20.0218 2.94007 22.9619 6.55392 22.9619H15.4461C19.0599 22.9619 22 20.0218 22 16.408V7.51583C22 3.90199 19.0599 0.961914 15.4461 0.961914ZM19.7868 16.4099C19.7868 18.8076 17.8434 20.7513 15.4461 20.7513H6.55392C4.15663 20.7513 2.2132 18.8076 2.2132 16.4099V7.51647C2.2132 5.11878 4.15663 3.17511 6.55392 3.17511H15.4461C17.8434 3.17511 19.7868 5.11878 19.7868 7.51647V16.4099ZM5.31002 11.9628C5.31002 8.82488 7.86254 6.27193 11 6.27193C14.1375 6.27193 16.69 8.82484 16.69 11.9628C16.69 15.1008 14.1375 17.6538 11 17.6538C7.86254 17.6538 5.31002 15.1008 5.31002 11.9628ZM11 15.4399C9.07982 15.4399 7.52322 13.8833 7.52322 11.9631C7.52322 10.0429 9.07986 8.48633 11 8.48633C12.9202 8.48633 14.4768 10.0429 14.4768 11.9631C14.4768 13.8833 12.9202 15.4399 11 15.4399ZM18.0644 6.31401C18.0644 7.06666 17.454 7.6768 16.701 7.6768C15.948 7.6768 15.3376 7.06666 15.3376 6.31401C15.3376 5.56136 15.948 4.95121 16.701 4.95121C17.454 4.95121 18.0644 5.56136 18.0644 6.31401Z" fill="#A84002"/>
</svg>
