<svg width="16" height="17" viewBox="0 0 16 17" fill="none" xmlns="http://www.w3.org/2000/svg">
<path d="M15.6413 13.647L13.1704 11.1699C12.6782 10.6785 11.8632 10.6934 11.3538 11.2042L10.109 12.4517C10.0303 12.4083 9.94891 12.3629 9.86332 12.3147C9.07719 11.8781 8.00124 11.2797 6.86903 10.1439C5.73347 9.0058 5.1359 7.92562 4.69898 7.13711C4.65288 7.05358 4.6087 6.97303 4.56508 6.89655L5.40057 6.0603L5.81133 5.64805C6.32143 5.1366 6.33549 4.31985 5.84448 3.82706L3.37353 1.34965C2.88251 0.857552 2.0671 0.872481 1.55701 1.38393L0.860608 2.086L0.879638 2.10494C0.646127 2.40361 0.450997 2.74808 0.305788 3.11955C0.171932 3.47314 0.0885942 3.81056 0.0504876 4.14867C-0.275785 6.86001 0.960264 9.33796 4.31474 12.7005C8.95165 17.3482 12.6884 16.9971 12.8496 16.9799C13.2007 16.9378 13.5372 16.8538 13.8791 16.7206C14.2465 16.5768 14.5899 16.3815 14.8877 16.1479L14.9029 16.1615L15.6084 15.469C16.1174 14.9576 16.1321 14.1406 15.6413 13.647Z" fill="#382A2A"/>
</svg>
