<svg width="16" height="17" viewBox="0 0 16 17" fill="none" xmlns="http://www.w3.org/2000/svg">
<path d="M15.6413 12.6581L13.1704 10.181C12.6782 9.68969 11.8632 9.70462 11.3538 10.2153L10.109 11.4628C10.0303 11.4194 9.94891 11.374 9.86332 11.3259C9.07719 10.8893 8.00124 10.2908 6.86903 9.15513C5.73347 8.01703 5.1359 6.9369 4.69898 6.14842C4.65288 6.06488 4.6087 5.98434 4.56508 5.90786L5.40057 5.07165L5.81133 4.65941C6.32143 4.14798 6.33549 3.33126 5.84448 2.83849L3.37353 0.361174C2.88251 -0.130907 2.0671 -0.115979 1.55701 0.395453L0.860608 1.0975L0.879638 1.11643C0.646127 1.41509 0.450997 1.75955 0.305788 2.131C0.171932 2.48458 0.0885942 2.82199 0.0504876 3.16009C-0.275785 5.87132 0.960264 8.34919 4.31474 11.7116C8.95165 16.3591 12.6884 16.008 12.8496 15.9909C13.2007 15.9488 13.5372 15.8647 13.8791 15.7316C14.2465 15.5877 14.5899 15.3924 14.8877 15.1589L14.9029 15.1724L15.6084 14.48C16.1174 13.9686 16.1321 13.1516 15.6413 12.6581Z" fill="white"/>
</svg>
