<svg width="11" height="16" viewBox="0 0 11 16" fill="none" xmlns="http://www.w3.org/2000/svg">
<path fill-rule="evenodd" clip-rule="evenodd" d="M5.48318 0.00186157C7.4465 0.00186157 9.32446 0.996399 10.2634 2.7369C11.2024 4.39448 11.2877 6.3836 10.2634 8.04123V8.1241L6.59285 14.3401C6.33678 14.7545 5.91001 15.0031 5.48318 15.0031C5.05641 15.0031 4.62958 14.7545 4.37352 14.3401L0.788355 8.28985C-0.748137 5.72056 0.020109 2.32248 2.58091 0.830651C3.43451 0.333358 4.45882 0.00186157 5.48318 0.00186157ZM9.49518 7.79246V7.70958C10.3488 6.30062 10.3488 4.56012 9.49518 3.15117C8.72688 1.82509 7.19039 0.913422 5.48319 0.913422C4.62959 0.913422 3.77599 1.16204 3.00774 1.57646C0.873718 2.81967 0.190828 5.72046 1.55661 7.87533L5.14182 13.9256C5.22718 14.0913 5.39789 14.1742 5.48324 14.1742C5.5686 14.1742 5.73931 14.1742 5.82466 13.9256L9.49518 7.79246ZM5.4998 3.33521C4.31517 3.33521 3.38442 4.25186 3.38442 5.41854C3.38442 6.58522 4.31517 7.50187 5.4998 7.50187C6.68443 7.50187 7.61518 6.58522 7.61518 5.41854C7.61518 4.25186 6.68443 3.33521 5.4998 3.33521ZM4.23077 5.4185C4.23077 6.08517 4.82308 6.66851 5.50001 6.66851C6.17693 6.66851 6.76925 6.08517 6.76925 5.4185C6.76925 4.75183 6.17693 4.16849 5.50001 4.16849C4.82308 4.16849 4.23077 4.75183 4.23077 5.4185Z" fill="white"/>
</svg>
