<svg width="11" height="16" viewBox="0 0 11 16" fill="none" xmlns="http://www.w3.org/2000/svg">
<path fill-rule="evenodd" clip-rule="evenodd" d="M5.48318 0.990234C7.4465 0.990234 9.32446 1.98482 10.2634 3.7254C11.2024 5.38305 11.2877 7.37226 10.2634 9.02997V9.11284L6.59285 15.3291C6.33678 15.7436 5.91001 15.9922 5.48318 15.9922C5.05641 15.9922 4.62958 15.7436 4.37352 15.3291L0.788355 9.2786C-0.748137 6.70919 0.020109 3.31096 2.58091 1.81906C3.43451 1.32175 4.45882 0.990234 5.48318 0.990234ZM9.49518 8.78081V8.69794C10.3488 7.28898 10.3488 5.54849 9.49518 4.13953C8.72688 2.81346 7.19039 1.90179 5.48319 1.90179C4.62959 1.90179 3.77599 2.15042 3.00774 2.56483C0.873718 3.80804 0.190828 6.70882 1.55661 8.86369L5.14182 14.9139C5.22718 15.0797 5.39789 15.1625 5.48324 15.1625C5.5686 15.1625 5.73931 15.1625 5.82466 14.9139L9.49518 8.78081ZM5.4998 4.32358C4.31517 4.32358 3.38442 5.24023 3.38442 6.40691C3.38442 7.57359 4.31517 8.49024 5.4998 8.49024C6.68443 8.49024 7.61518 7.57359 7.61518 6.40691C7.61518 5.24023 6.68443 4.32358 5.4998 4.32358ZM4.23077 6.40687C4.23077 7.07354 4.82308 7.65688 5.50001 7.65688C6.17693 7.65688 6.76925 7.07354 6.76925 6.40687C6.76925 5.7402 6.17693 5.15686 5.50001 5.15686C4.82308 5.15686 4.23077 5.7402 4.23077 6.40687Z" fill="#382A2A"/>
</svg>
