<svg width="20" height="20" viewBox="0 0 20 20" fill="none" xmlns="http://www.w3.org/2000/svg">
<path fill-rule="evenodd" clip-rule="evenodd" d="M19.0667 15.7672L16.4 15.8088C16.4 15.8088 15.825 15.9255 15.075 15.3922C14.075 14.6922 13.1333 12.8672 12.4 13.1088C11.6583 13.3505 11.6833 14.9922 11.6833 14.9922C11.6833 14.9922 11.6917 15.3422 11.5167 15.5255C11.3333 15.7338 10.975 15.7672 10.975 15.7672H9.78333C9.78333 15.7672 7.15 15.9338 4.83333 13.4588C2.29166 10.7672 0.0583301 5.42549 0.0583301 5.42549C0.0583301 5.42549 -0.0750033 5.07549 0.0666634 4.90049C0.224997 4.71716 0.649997 4.70049 0.649997 4.70049L3.50833 4.68382C3.50833 4.68382 3.775 4.73382 3.96666 4.87549C4.125 4.99216 4.21666 5.21716 4.21666 5.21716C4.21666 5.21716 4.675 6.40882 5.29166 7.49216C6.48333 9.60049 7.04167 10.0588 7.44167 9.83382C8.03333 9.50049 7.85833 6.85882 7.85833 6.85882C7.85833 6.85882 7.86666 5.90049 7.55833 5.46716C7.31666 5.13382 6.86667 5.03382 6.675 5.00882C6.51666 4.98382 6.775 4.60049 7.11666 4.43382C7.63333 4.17549 8.54167 4.15882 9.60833 4.17549C10.4417 4.18382 10.6833 4.23382 11.0083 4.31716C11.9917 4.55882 11.6583 5.50049 11.6583 7.75049C11.6583 8.47549 11.5333 9.48382 12.0417 9.82549C12.2583 9.96716 12.8 9.85049 14.1333 7.52549C14.7667 6.42549 15.2417 5.13382 15.2417 5.13382C15.2417 5.13382 15.35 4.90049 15.5083 4.80049C15.675 4.70049 15.8917 4.72549 15.8917 4.72549L18.9 4.70882C18.9 4.70882 19.8 4.60049 19.95 5.01716C20.1083 5.45049 19.6167 6.47549 18.3833 8.15049C16.3667 10.9005 16.1417 10.6422 17.8167 12.2255C19.4167 13.7422 19.7417 14.4838 19.8 14.5755C20.4667 15.7005 19.0667 15.7838 19.0667 15.7838V15.7672Z" fill="#382A2A"/>
</svg>
