<svg width="20" height="13" viewBox="0 0 20 13" fill="none" xmlns="http://www.w3.org/2000/svg">
<path d="M17.2129 8.5862C17.3884 8.76796 17.5666 8.94687 17.7447 9.12573C18.2396 9.62265 18.734 10.1191 19.1715 10.6751C19.4344 11.011 19.6832 11.3577 19.8736 11.7476C20.1433 12.3018 19.899 12.9117 19.4303 12.9448L16.5166 12.9434C15.7652 13.0095 15.1657 12.6887 14.6616 12.144C14.3886 11.8492 14.1293 11.5416 13.87 11.234C13.7461 11.087 13.6222 10.94 13.4967 10.7943C13.3377 10.6103 13.1713 10.4371 12.9724 10.3002C12.5747 10.0264 12.2294 10.1102 12.0021 10.5501C11.7706 10.9974 11.7181 11.4928 11.6954 11.9913C11.6642 12.7188 11.4568 12.91 10.7676 12.9433C9.29473 13.017 7.89691 12.7807 6.59838 11.9929C5.45355 11.2985 4.56579 10.3181 3.79308 9.20815C2.28861 7.04691 1.13649 4.67206 0.101007 2.23067C-0.132072 1.68063 0.0383836 1.38536 0.610798 1.37491C1.56132 1.35533 2.5117 1.35673 3.46334 1.37352C3.84966 1.37951 4.10541 1.61444 4.25458 2.00139C4.76883 3.34205 5.39809 4.61757 6.18794 5.79988C6.39829 6.11465 6.61277 6.42942 6.9182 6.65097C7.25609 6.89628 7.51335 6.81497 7.6723 6.4159C7.77317 6.16286 7.81733 5.89031 7.84007 5.61929C7.91537 4.6869 7.92529 3.7561 7.79321 2.82698C7.71213 2.24711 7.40407 1.87173 6.85833 1.762C6.57985 1.70605 6.62131 1.59618 6.75615 1.42765C6.99035 1.13699 7.21061 0.956055 7.6497 0.956055H10.9426C11.461 1.06453 11.5761 1.31144 11.6471 1.86449L11.6499 5.74254C11.6442 5.95664 11.7508 6.59196 12.1145 6.73367C12.3868 6.82805 12.5723 6.61804 12.7381 6.43033C12.7495 6.41739 12.7609 6.40456 12.7721 6.39194C13.5605 5.50476 14.1232 4.45629 14.6259 3.37062C14.849 2.89324 15.0408 2.39746 15.2267 1.90211C15.3644 1.53453 15.5806 1.35366 15.9711 1.36167L19.1403 1.36467C19.2343 1.36467 19.3294 1.36613 19.4204 1.38265C19.9544 1.47914 20.1007 1.72271 19.9358 2.27561C19.6857 3.11031 19.2081 3.81115 18.7319 4.50992C18.7132 4.53735 18.6945 4.56478 18.6759 4.59221C18.4287 4.95487 18.1734 5.31171 17.9181 5.66865C17.6276 6.07486 17.3369 6.48119 17.058 6.89635C16.5764 7.60859 16.6147 7.9676 17.2129 8.5862Z" fill="#A84002"/>
<path d="M17.2129 8.5862C17.3884 8.76796 17.5666 8.94687 17.7447 9.12573C18.2396 9.62265 18.734 10.1191 19.1715 10.6751C19.4344 11.011 19.6832 11.3577 19.8736 11.7476C20.1433 12.3018 19.899 12.9117 19.4303 12.9448L16.5166 12.9434C15.7652 13.0095 15.1657 12.6887 14.6616 12.144C14.3886 11.8492 14.1293 11.5416 13.87 11.234C13.7461 11.087 13.6222 10.94 13.4967 10.7943C13.3377 10.6103 13.1713 10.4371 12.9724 10.3002C12.5747 10.0264 12.2294 10.1102 12.0021 10.5501C11.7706 10.9974 11.7181 11.4928 11.6954 11.9913C11.6642 12.7188 11.4568 12.91 10.7676 12.9433C9.29473 13.017 7.89691 12.7807 6.59838 11.9929C5.45355 11.2985 4.56579 10.3181 3.79308 9.20815C2.28861 7.04691 1.13649 4.67206 0.101007 2.23067C-0.132072 1.68063 0.0383836 1.38536 0.610798 1.37491C1.56132 1.35533 2.5117 1.35673 3.46334 1.37352C3.84966 1.37951 4.10541 1.61444 4.25458 2.00139C4.76883 3.34205 5.39809 4.61757 6.18794 5.79988C6.39829 6.11465 6.61277 6.42942 6.9182 6.65097C7.25609 6.89628 7.51335 6.81497 7.6723 6.4159C7.77317 6.16286 7.81733 5.89031 7.84007 5.61929C7.91537 4.6869 7.92529 3.7561 7.79321 2.82698C7.71213 2.24711 7.40407 1.87173 6.85833 1.762C6.57985 1.70605 6.62131 1.59618 6.75615 1.42765C6.99035 1.13699 7.21061 0.956055 7.6497 0.956055H10.9426C11.461 1.06453 11.5761 1.31144 11.6471 1.86449L11.6499 5.74254C11.6442 5.95664 11.7508 6.59196 12.1145 6.73367C12.3868 6.82805 12.5723 6.61804 12.7381 6.43033C12.7495 6.41739 12.7609 6.40456 12.7721 6.39194C13.5605 5.50476 14.1232 4.45629 14.6259 3.37062C14.849 2.89324 15.0408 2.39746 15.2267 1.90211C15.3644 1.53453 15.5806 1.35366 15.9711 1.36167L19.1403 1.36467C19.2343 1.36467 19.3294 1.36613 19.4204 1.38265C19.9544 1.47914 20.1007 1.72271 19.9358 2.27561C19.6857 3.11031 19.2081 3.81115 18.7319 4.50992C18.7132 4.53735 18.6945 4.56478 18.6759 4.59221C18.4287 4.95487 18.1734 5.31171 17.9181 5.66865C17.6276 6.07486 17.3369 6.48119 17.058 6.89635C16.5764 7.60859 16.6147 7.9676 17.2129 8.5862Z" stroke="#A84002"/>
</svg>
