<svg width="234" height="245" viewBox="0 0 234 245" fill="none" xmlns="http://www.w3.org/2000/svg">
<path d="M234 213.899H79V244.902H234V213.899Z" fill="#E6E6E6"/>
<path d="M221 207.899H96V214.899H221V207.899Z" fill="#E6E6E6"/>
<path d="M114.027 243.902L42.9354 243.821C42.6873 243.821 42.4494 243.76 42.274 243.652C42.0985 243.544 42 243.398 42 243.245V75.3497C42.0048 75.1979 42.1049 75.0531 42.2793 74.9458C42.4537 74.8384 42.6888 74.7768 42.9354 74.7738H50.5497V48.5229C50.5545 48.371 50.6546 48.2263 50.829 48.1189C51.0034 48.0115 51.2385 47.9499 51.4851 47.9469H60.091V27.0061C60.091 26.8533 60.1895 26.7068 60.3649 26.5988C60.5403 26.4908 60.7783 26.4301 61.0264 26.4301H73.7854V1.45777C73.7854 1.30502 73.884 1.15853 74.0594 1.05053C74.2349 0.942518 74.4728 0.881836 74.7209 0.881836H82.2977C82.5458 0.881836 82.7838 0.942518 82.9592 1.05053C83.1346 1.15853 83.2332 1.30502 83.2332 1.45777V26.4301H95.9735C96.2216 26.4301 96.4596 26.4908 96.635 26.5988C96.8104 26.7068 96.9089 26.8533 96.9089 27.0061V47.9469H105.515C105.763 47.9469 106.001 48.0076 106.176 48.1156C106.352 48.2236 106.45 48.3701 106.45 48.5229V74.7738H114.064C114.311 74.7768 114.546 74.8384 114.721 74.9458C114.895 75.0531 114.995 75.1979 115 75.3497V243.326C115.002 243.403 114.978 243.48 114.93 243.551C114.881 243.622 114.81 243.687 114.719 243.741C114.628 243.795 114.519 243.837 114.4 243.865C114.281 243.893 114.154 243.905 114.027 243.902ZM43.8334 242.681L113.054 242.75V75.9257H105.44C105.192 75.9257 104.954 75.865 104.779 75.757C104.603 75.649 104.505 75.5025 104.505 75.3497V49.0988H95.8987C95.6506 49.0988 95.4127 49.0381 95.2373 48.9301C95.0618 48.8221 94.9633 48.6756 94.9633 48.5229V27.582H82.2229C81.9748 27.582 81.7369 27.5213 81.5615 27.4133C81.386 27.3053 81.2875 27.1588 81.2875 27.0061V2.0337H75.5815V27.0061C75.5815 27.1588 75.4829 27.3053 75.3075 27.4133C75.132 27.5213 74.8941 27.582 74.646 27.582H61.8869V48.5229C61.8869 48.6756 61.7884 48.8221 61.613 48.9301C61.4376 49.0381 61.1996 49.0988 60.9515 49.0988H52.3457V75.3497C52.3457 75.5025 52.2471 75.649 52.0717 75.757C51.8963 75.865 51.6584 75.9257 51.4103 75.9257H43.796L43.8334 242.681Z" fill="#EDEDED"/>
<path d="M51.858 86.4873H0.598633V90.8707H51.858V86.4873Z" fill="white"/>
<path d="M51.8582 91.4817H0.598824C0.440966 91.4786 0.290443 91.4146 0.178799 91.3029C0.0671557 91.1913 0.00306607 91.0407 0 90.8829V86.4875C0.00306607 86.3296 0.0671557 86.1791 0.178799 86.0675C0.290443 85.9558 0.440966 85.8917 0.598824 85.8887H51.8582C52.017 85.8887 52.1693 85.9518 52.2816 86.0641C52.3939 86.1764 52.457 86.3287 52.457 86.4875V90.8829C52.457 91.0417 52.3939 91.194 52.2816 91.3063C52.1693 91.4186 52.017 91.4817 51.8582 91.4817ZM1.19765 90.284H51.2593V87.0863H1.19765V90.284Z" fill="#EDEDED"/>
<path d="M47.7258 90.8721H4.74219V95.0889H47.7258V90.8721Z" fill="white"/>
<path d="M47.726 95.6856H4.74238C4.58356 95.6856 4.43126 95.6225 4.31895 95.5102C4.20665 95.3979 4.14355 95.2456 4.14355 95.0867V90.883C4.14355 90.7242 4.20665 90.5719 4.31895 90.4596C4.43126 90.3473 4.58356 90.2842 4.74238 90.2842H47.726C47.8848 90.2842 48.0371 90.3473 48.1494 90.4596C48.2617 90.5719 48.3248 90.7242 48.3248 90.883V95.0867C48.3248 95.2456 48.2617 95.3979 48.1494 95.5102C48.0371 95.6225 47.8848 95.6856 47.726 95.6856ZM5.3412 94.4879H47.1272V91.4818H5.3412V94.4879Z" fill="#EDEDED"/>
<path d="M47.7258 90.8721H4.74219V95.0889H47.7258V90.8721Z" fill="#EDEDED"/>
<path d="M47.7258 95.0869H4.74219V106.907H47.7258V95.0869Z" fill="white"/>
<path d="M47.7259 107.508H4.74238C4.58356 107.508 4.43126 107.445 4.31895 107.332C4.20665 107.22 4.14355 107.068 4.14355 106.909V95.0862C4.14355 94.9274 4.20665 94.775 4.31895 94.6627C4.43126 94.5504 4.58356 94.4873 4.74238 94.4873H47.7259C47.8848 94.4873 48.0371 94.5504 48.1494 94.6627C48.2617 94.775 48.3248 94.9274 48.3248 95.0862V106.909C48.3248 107.068 48.2617 107.22 48.1494 107.332C48.0371 107.445 47.8848 107.508 47.7259 107.508ZM5.3412 106.31H47.1271V95.6851H5.3412V106.31Z" fill="#EDEDED"/>
<path d="M47.7258 95.0869H4.74219V106.907H47.7258V95.0869Z" fill="#D1D3D4"/>
<path d="M47.7259 107.508H4.74238C4.58356 107.508 4.43126 107.445 4.31895 107.332C4.20665 107.22 4.14355 107.068 4.14355 106.909V95.0862C4.14355 94.9274 4.20665 94.775 4.31895 94.6627C4.43126 94.5504 4.58356 94.4873 4.74238 94.4873H47.7259C47.8848 94.4873 48.0371 94.5504 48.1494 94.6627C48.2617 94.775 48.3248 94.9274 48.3248 95.0862V106.909C48.3248 107.068 48.2617 107.22 48.1494 107.332C48.0371 107.445 47.8848 107.508 47.7259 107.508ZM5.3412 106.31H47.1271V95.6851H5.3412V106.31Z" fill="#EDEDED"/>
<path d="M15.2219 107.508C15.0631 107.508 14.9108 107.445 14.7985 107.332C14.6861 107.22 14.623 107.068 14.623 106.909V95.0862C14.6261 94.9283 14.6902 94.7778 14.8019 94.6661C14.9135 94.5545 15.064 94.4904 15.2219 94.4873C15.3807 94.4873 15.533 94.5504 15.6453 94.6627C15.7576 94.775 15.8207 94.9274 15.8207 95.0862V106.909C15.8207 107.068 15.7576 107.22 15.6453 107.332C15.533 107.445 15.3807 107.508 15.2219 107.508Z" fill="#EDEDED"/>
<path d="M26.2282 107.508C26.0694 107.508 25.9171 107.445 25.8048 107.332C25.6925 107.22 25.6294 107.068 25.6294 106.909V95.0862C25.6325 94.9283 25.6965 94.7778 25.8082 94.6661C25.9198 94.5545 26.0704 94.4904 26.2282 94.4873C26.387 94.4873 26.5393 94.5504 26.6516 94.6627C26.7639 94.775 26.827 94.9274 26.827 95.0862V106.909C26.827 107.068 26.7639 107.22 26.6516 107.332C26.5393 107.445 26.387 107.508 26.2282 107.508Z" fill="#EDEDED"/>
<path d="M37.1984 107.508C37.0396 107.508 36.8873 107.445 36.775 107.332C36.6627 107.22 36.5996 107.068 36.5996 106.909V95.0862C36.5996 94.9274 36.6627 94.775 36.775 94.6627C36.8873 94.5504 37.0396 94.4873 37.1984 94.4873C37.3563 94.4904 37.5068 94.5545 37.6184 94.6661C37.7301 94.7778 37.7942 94.9283 37.7972 95.0862V106.909C37.7972 107.068 37.7341 107.22 37.6218 107.332C37.5095 107.445 37.3572 107.508 37.1984 107.508Z" fill="#EDEDED"/>
<path d="M51.858 106.048H0.598633V110.433H51.858V106.048Z" fill="white"/>
<path d="M51.8582 111.041H0.598824C0.440966 111.038 0.290443 110.974 0.178799 110.862C0.0671557 110.751 0.00306607 110.6 0 110.442V106.047C0.00306607 105.889 0.0671557 105.739 0.178799 105.627C0.290443 105.515 0.440966 105.451 0.598824 105.448H51.8582C52.017 105.448 52.1693 105.511 52.2816 105.624C52.3939 105.736 52.457 105.888 52.457 106.047V110.442C52.457 110.601 52.3939 110.754 52.2816 110.866C52.1693 110.978 52.017 111.041 51.8582 111.041ZM1.19765 109.844H51.2593V106.646H1.19765V109.844Z" fill="#EDEDED"/>
<path d="M47.7258 110.442H4.74219V114.658H47.7258V110.442Z" fill="white"/>
<path d="M47.726 115.245H4.74238C4.58356 115.245 4.43126 115.182 4.31895 115.07C4.20665 114.957 4.14355 114.805 4.14355 114.646V110.443C4.14355 110.284 4.20665 110.131 4.31895 110.019C4.43126 109.907 4.58356 109.844 4.74238 109.844H47.726C47.8848 109.844 48.0371 109.907 48.1494 110.019C48.2617 110.131 48.3248 110.284 48.3248 110.443V114.646C48.3248 114.805 48.2617 114.957 48.1494 115.07C48.0371 115.182 47.8848 115.245 47.726 115.245ZM5.3412 114.047H47.1272V111.041H5.3412V114.047Z" fill="#EDEDED"/>
<path d="M47.7258 110.442H4.74219V114.658H47.7258V110.442Z" fill="#EDEDED"/>
<path d="M47.7258 114.646H4.74219V126.467H47.7258V114.646Z" fill="white"/>
<path d="M47.7259 127.066H4.74238C4.58356 127.066 4.43126 127.003 4.31895 126.891C4.20665 126.779 4.14355 126.626 4.14355 126.468V114.646C4.14355 114.487 4.20665 114.335 4.31895 114.222C4.43126 114.11 4.58356 114.047 4.74238 114.047H47.7259C47.8848 114.047 48.0371 114.11 48.1494 114.222C48.2617 114.335 48.3248 114.487 48.3248 114.646V126.468C48.3248 126.626 48.2617 126.779 48.1494 126.891C48.0371 127.003 47.8848 127.066 47.7259 127.066ZM5.3412 125.869H47.1271V115.245H5.3412V125.869Z" fill="#EDEDED"/>
<path d="M47.7258 114.646H4.74219V126.467H47.7258V114.646Z" fill="#D1D3D4"/>
<path d="M47.7259 127.066H4.74238C4.58356 127.066 4.43126 127.003 4.31895 126.891C4.20665 126.779 4.14355 126.626 4.14355 126.468V114.646C4.14355 114.487 4.20665 114.335 4.31895 114.222C4.43126 114.11 4.58356 114.047 4.74238 114.047H47.7259C47.8848 114.047 48.0371 114.11 48.1494 114.222C48.2617 114.335 48.3248 114.487 48.3248 114.646V126.468C48.3248 126.626 48.2617 126.779 48.1494 126.891C48.0371 127.003 47.8848 127.066 47.7259 127.066ZM5.3412 125.869H47.1271V115.245H5.3412V125.869Z" fill="#EDEDED"/>
<path d="M15.2219 127.066C15.0631 127.066 14.9108 127.003 14.7985 126.891C14.6861 126.779 14.623 126.626 14.623 126.468V114.646C14.6261 114.488 14.6902 114.337 14.8019 114.226C14.9135 114.114 15.064 114.05 15.2219 114.047C15.3807 114.047 15.533 114.11 15.6453 114.222C15.7576 114.335 15.8207 114.487 15.8207 114.646V126.468C15.8207 126.626 15.7576 126.779 15.6453 126.891C15.533 127.003 15.3807 127.066 15.2219 127.066Z" fill="#EDEDED"/>
<path d="M26.2282 127.066C26.0694 127.066 25.9171 127.003 25.8048 126.891C25.6925 126.779 25.6294 126.626 25.6294 126.468V114.646C25.6325 114.488 25.6965 114.337 25.8082 114.226C25.9198 114.114 26.0704 114.05 26.2282 114.047C26.387 114.047 26.5393 114.11 26.6516 114.222C26.7639 114.335 26.827 114.487 26.827 114.646V126.468C26.827 126.626 26.7639 126.779 26.6516 126.891C26.5393 127.003 26.387 127.066 26.2282 127.066Z" fill="#EDEDED"/>
<path d="M37.1984 127.066C37.0396 127.066 36.8873 127.003 36.775 126.891C36.6627 126.779 36.5996 126.626 36.5996 126.468V114.646C36.5996 114.487 36.6627 114.335 36.775 114.222C36.8873 114.11 37.0396 114.047 37.1984 114.047C37.3563 114.05 37.5068 114.114 37.6184 114.226C37.7301 114.337 37.7942 114.488 37.7972 114.646V126.468C37.7972 126.626 37.7341 126.779 37.6218 126.891C37.5095 127.003 37.3572 127.066 37.1984 127.066Z" fill="#EDEDED"/>
<path d="M51.858 125.605H0.598633V129.99H51.858V125.605Z" fill="white"/>
<path d="M51.8582 130.6H0.598824C0.440966 130.597 0.290443 130.533 0.178799 130.421C0.0671557 130.309 0.00306607 130.159 0 130.001V125.606C0.00306607 125.448 0.0671557 125.297 0.178799 125.186C0.290443 125.074 0.440966 125.01 0.598824 125.007H51.8582C52.017 125.007 52.1693 125.07 52.2816 125.182C52.3939 125.295 52.457 125.447 52.457 125.606V130.001C52.457 130.16 52.3939 130.312 52.2816 130.424C52.1693 130.537 52.017 130.6 51.8582 130.6ZM1.19765 129.402H51.2593V126.204H1.19765V129.402Z" fill="#EDEDED"/>
<path d="M47.7258 130.001H4.74219V134.218H47.7258V130.001Z" fill="white"/>
<path d="M47.726 134.805H4.74238C4.58356 134.805 4.43126 134.742 4.31895 134.629C4.20665 134.517 4.14355 134.365 4.14355 134.206V130.002C4.14355 129.843 4.20665 129.691 4.31895 129.579C4.43126 129.466 4.58356 129.403 4.74238 129.403H47.726C47.8848 129.403 48.0371 129.466 48.1494 129.579C48.2617 129.691 48.3248 129.843 48.3248 130.002V134.206C48.3248 134.365 48.2617 134.517 48.1494 134.629C48.0371 134.742 47.8848 134.805 47.726 134.805ZM5.3412 133.607H47.1272V130.601H5.3412V133.607Z" fill="#EDEDED"/>
<path d="M47.7258 130.001H4.74219V134.218H47.7258V130.001Z" fill="#EDEDED"/>
<path d="M47.7258 134.206H4.74219V146.027H47.7258V134.206Z" fill="white"/>
<path d="M47.7259 146.626H4.74238C4.58356 146.626 4.43126 146.563 4.31895 146.451C4.20665 146.338 4.14355 146.186 4.14355 146.027V134.205C4.14355 134.046 4.20665 133.894 4.31895 133.782C4.43126 133.67 4.58356 133.606 4.74238 133.606H47.7259C47.8848 133.606 48.0371 133.67 48.1494 133.782C48.2617 133.894 48.3248 134.046 48.3248 134.205V146.087C48.3099 146.235 48.2402 146.373 48.1295 146.472C48.0188 146.572 47.8749 146.627 47.7259 146.626ZM5.3412 145.428H47.1271V134.804H5.3412V145.428Z" fill="#EDEDED"/>
<path d="M47.7258 134.206H4.74219V146.027H47.7258V134.206Z" fill="#D1D3D4"/>
<path d="M47.7259 146.626H4.74238C4.58356 146.626 4.43126 146.563 4.31895 146.451C4.20665 146.338 4.14355 146.186 4.14355 146.027V134.205C4.14355 134.046 4.20665 133.894 4.31895 133.782C4.43126 133.67 4.58356 133.606 4.74238 133.606H47.7259C47.8848 133.606 48.0371 133.67 48.1494 133.782C48.2617 133.894 48.3248 134.046 48.3248 134.205V146.087C48.3099 146.235 48.2402 146.373 48.1295 146.472C48.0188 146.572 47.8749 146.627 47.7259 146.626ZM5.3412 145.428H47.1271V134.804H5.3412V145.428Z" fill="#EDEDED"/>
<path d="M15.2219 146.626C15.0631 146.626 14.9108 146.563 14.7985 146.451C14.6861 146.338 14.623 146.186 14.623 146.027V134.205C14.6261 134.047 14.6902 133.897 14.8019 133.785C14.9135 133.674 15.064 133.61 15.2219 133.606C15.3807 133.606 15.533 133.67 15.6453 133.782C15.7576 133.894 15.8207 134.046 15.8207 134.205V146.087C15.8058 146.235 15.7362 146.373 15.6255 146.472C15.5148 146.572 15.3709 146.627 15.2219 146.626Z" fill="#EDEDED"/>
<path d="M26.2282 146.626C26.0694 146.626 25.9171 146.563 25.8048 146.451C25.6925 146.338 25.6294 146.186 25.6294 146.027V134.205C25.6325 134.047 25.6965 133.897 25.8082 133.785C25.9198 133.674 26.0704 133.61 26.2282 133.606C26.387 133.606 26.5393 133.67 26.6516 133.782C26.7639 133.894 26.827 134.046 26.827 134.205V146.087C26.8121 146.235 26.7425 146.373 26.6318 146.472C26.5211 146.572 26.3772 146.627 26.2282 146.626Z" fill="#EDEDED"/>
<path d="M37.1984 146.626C37.0396 146.626 36.8873 146.563 36.775 146.451C36.6627 146.338 36.5996 146.186 36.5996 146.027V134.205C36.5996 134.046 36.6627 133.894 36.775 133.782C36.8873 133.67 37.0396 133.606 37.1984 133.606C37.3563 133.61 37.5068 133.674 37.6184 133.785C37.7301 133.897 37.7942 134.047 37.7972 134.205V146.087C37.7823 146.235 37.7127 146.373 37.602 146.472C37.4913 146.572 37.3474 146.627 37.1984 146.626Z" fill="#EDEDED"/>
<path d="M51.858 145.165H0.598633V149.548H51.858V145.165Z" fill="white"/>
<path d="M51.8582 150.16H0.598825C0.440966 150.157 0.290443 150.093 0.178799 149.981C0.0671558 149.87 0.00306607 149.719 0 149.561V145.177C0 145.018 0.0630989 144.866 0.1754 144.754C0.287702 144.641 0.440006 144.578 0.598825 144.578H51.8582C52.017 144.578 52.1693 144.641 52.2816 144.754C52.3939 144.866 52.457 145.018 52.457 145.177V149.561C52.457 149.72 52.3939 149.872 52.2816 149.985C52.1693 150.097 52.017 150.16 51.8582 150.16ZM1.19765 148.962H51.2594V145.776H1.19765V148.962Z" fill="#EDEDED"/>
<path d="M47.7258 149.561H4.74219V153.777H47.7258V149.561Z" fill="white"/>
<path d="M47.726 154.363H4.74238C4.58356 154.363 4.43126 154.3 4.31895 154.188C4.20665 154.076 4.14355 153.923 4.14355 153.764V149.561C4.14355 149.402 4.20665 149.25 4.31895 149.137C4.43126 149.025 4.58356 148.962 4.74238 148.962H47.726C47.8848 148.962 48.0371 149.025 48.1494 149.137C48.2617 149.25 48.3248 149.402 48.3248 149.561V153.764C48.3248 153.923 48.2617 154.076 48.1494 154.188C48.0371 154.3 47.8848 154.363 47.726 154.363ZM5.3412 153.166H47.1272V150.16H5.3412V153.166Z" fill="#EDEDED"/>
<path d="M47.7258 149.561H4.74219V153.777H47.7258V149.561Z" fill="#EDEDED"/>
<path d="M47.7258 153.766H4.74219V165.586H47.7258V153.766Z" fill="white"/>
<path d="M47.7259 166.186H4.74238C4.58356 166.186 4.43126 166.122 4.31895 166.01C4.20665 165.898 4.14355 165.746 4.14355 165.587V153.765C4.14355 153.606 4.20665 153.454 4.31895 153.341C4.43126 153.229 4.58356 153.166 4.74238 153.166H47.7259C47.8848 153.166 48.0371 153.229 48.1494 153.341C48.2617 153.454 48.3248 153.606 48.3248 153.765V165.587C48.3248 165.746 48.2617 165.898 48.1494 166.01C48.0371 166.122 47.8848 166.186 47.7259 166.186ZM5.3412 164.988H47.1271V154.364H5.3412V164.988Z" fill="#EDEDED"/>
<path d="M47.7258 153.766H4.74219V165.586H47.7258V153.766Z" fill="#D1D3D4"/>
<path d="M47.7259 166.186H4.74238C4.58356 166.186 4.43126 166.122 4.31895 166.01C4.20665 165.898 4.14355 165.746 4.14355 165.587V153.765C4.14355 153.606 4.20665 153.454 4.31895 153.341C4.43126 153.229 4.58356 153.166 4.74238 153.166H47.7259C47.8848 153.166 48.0371 153.229 48.1494 153.341C48.2617 153.454 48.3248 153.606 48.3248 153.765V165.587C48.3248 165.746 48.2617 165.898 48.1494 166.01C48.0371 166.122 47.8848 166.186 47.7259 166.186ZM5.3412 164.988H47.1271V154.364H5.3412V164.988Z" fill="#EDEDED"/>
<path d="M15.2219 166.186C15.0631 166.186 14.9108 166.122 14.7985 166.01C14.6861 165.898 14.623 165.746 14.623 165.587V153.765C14.6261 153.607 14.6902 153.456 14.8019 153.345C14.9135 153.233 15.064 153.169 15.2219 153.166C15.3807 153.166 15.533 153.229 15.6453 153.341C15.7576 153.454 15.8207 153.606 15.8207 153.765V165.587C15.8207 165.746 15.7576 165.898 15.6453 166.01C15.533 166.122 15.3807 166.186 15.2219 166.186Z" fill="#EDEDED"/>
<path d="M26.2282 166.186C26.0694 166.186 25.9171 166.122 25.8048 166.01C25.6925 165.898 25.6294 165.746 25.6294 165.587V153.765C25.6325 153.607 25.6965 153.456 25.8082 153.345C25.9198 153.233 26.0704 153.169 26.2282 153.166C26.387 153.166 26.5393 153.229 26.6516 153.341C26.7639 153.454 26.827 153.606 26.827 153.765V165.587C26.827 165.746 26.7639 165.898 26.6516 166.01C26.5393 166.122 26.387 166.186 26.2282 166.186Z" fill="#EDEDED"/>
<path d="M37.1984 166.186C37.0396 166.186 36.8873 166.122 36.775 166.01C36.6627 165.898 36.5996 165.746 36.5996 165.587V153.765C36.5996 153.606 36.6627 153.454 36.775 153.341C36.8873 153.229 37.0396 153.166 37.1984 153.166C37.3563 153.169 37.5068 153.233 37.6184 153.345C37.7301 153.456 37.7942 153.607 37.7972 153.765V165.587C37.7972 165.746 37.7341 165.898 37.6218 166.01C37.5095 166.122 37.3572 166.186 37.1984 166.186Z" fill="#EDEDED"/>
<path d="M51.858 164.736H0.598633V169.12H51.858V164.736Z" fill="white"/>
<path d="M51.8582 169.719H0.598824C0.440966 169.716 0.290443 169.652 0.178799 169.54C0.0671557 169.428 0.00306607 169.278 0 169.12V164.737C0 164.578 0.0630989 164.425 0.1754 164.313C0.287702 164.201 0.440006 164.138 0.598824 164.138H51.8582C52.017 164.138 52.1693 164.201 52.2816 164.313C52.3939 164.425 52.457 164.578 52.457 164.737V169.12C52.457 169.279 52.3939 169.431 52.2816 169.543C52.1693 169.656 52.017 169.719 51.8582 169.719ZM1.19765 168.521H51.2593V165.335H1.19765V168.521Z" fill="#EDEDED"/>
<path d="M47.7258 169.12H4.74219V173.336H47.7258V169.12Z" fill="white"/>
<path d="M47.726 173.923H4.74238C4.58356 173.923 4.43126 173.86 4.31895 173.747C4.20665 173.635 4.14355 173.483 4.14355 173.324V169.12C4.14355 168.961 4.20665 168.809 4.31895 168.697C4.43126 168.585 4.58356 168.521 4.74238 168.521H47.726C47.8848 168.521 48.0371 168.585 48.1494 168.697C48.2617 168.809 48.3248 168.961 48.3248 169.12V173.324C48.3248 173.483 48.2617 173.635 48.1494 173.747C48.0371 173.86 47.8848 173.923 47.726 173.923ZM5.3412 172.725H47.1272V169.719H5.3412V172.725Z" fill="#EDEDED"/>
<path d="M47.7258 169.12H4.74219V173.336H47.7258V169.12Z" fill="#EDEDED"/>
<path d="M47.7258 173.325H4.74219V185.146H47.7258V173.325Z" fill="white"/>
<path d="M47.726 185.744H4.74238C4.58356 185.744 4.43126 185.681 4.31895 185.569C4.20665 185.456 4.14355 185.304 4.14355 185.145V173.324C4.14355 173.166 4.20665 173.013 4.31895 172.901C4.43126 172.789 4.58356 172.726 4.74238 172.726H47.726C47.8848 172.726 48.0371 172.789 48.1494 172.901C48.2617 173.013 48.3248 173.166 48.3248 173.324V185.145C48.3248 185.304 48.2617 185.456 48.1494 185.569C48.0371 185.681 47.8848 185.744 47.726 185.744ZM5.3412 184.546H47.1272V173.923H5.3412V184.546Z" fill="#EDEDED"/>
<path d="M47.7258 173.325H4.74219V185.146H47.7258V173.325Z" fill="#D1D3D4"/>
<path d="M47.726 185.744H4.74238C4.58356 185.744 4.43126 185.681 4.31895 185.569C4.20665 185.456 4.14355 185.304 4.14355 185.145V173.324C4.14355 173.166 4.20665 173.013 4.31895 172.901C4.43126 172.789 4.58356 172.726 4.74238 172.726H47.726C47.8848 172.726 48.0371 172.789 48.1494 172.901C48.2617 173.013 48.3248 173.166 48.3248 173.324V185.145C48.3248 185.304 48.2617 185.456 48.1494 185.569C48.0371 185.681 47.8848 185.744 47.726 185.744ZM5.3412 184.546H47.1272V173.923H5.3412V184.546Z" fill="#EDEDED"/>
<path d="M15.2219 185.744C15.0631 185.744 14.9107 185.681 14.7984 185.569C14.6861 185.456 14.623 185.304 14.623 185.145V173.324C14.6261 173.167 14.6902 173.016 14.8018 172.904C14.9135 172.793 15.064 172.729 15.2219 172.726C15.3807 172.726 15.533 172.789 15.6453 172.901C15.7576 173.013 15.8207 173.166 15.8207 173.324V185.145C15.8207 185.304 15.7576 185.456 15.6453 185.569C15.533 185.681 15.3807 185.744 15.2219 185.744Z" fill="#EDEDED"/>
<path d="M26.2282 185.744C26.0694 185.744 25.9171 185.681 25.8048 185.569C25.6925 185.456 25.6294 185.304 25.6294 185.145V173.324C25.6325 173.167 25.6966 173.016 25.8082 172.904C25.9198 172.793 26.0704 172.729 26.2282 172.726C26.387 172.726 26.5393 172.789 26.6516 172.901C26.7639 173.013 26.827 173.166 26.827 173.324V185.145C26.827 185.304 26.7639 185.456 26.6516 185.569C26.5393 185.681 26.387 185.744 26.2282 185.744Z" fill="#EDEDED"/>
<path d="M37.1984 185.744C37.0396 185.744 36.8873 185.681 36.775 185.569C36.6627 185.456 36.5996 185.304 36.5996 185.145V173.324C36.5996 173.166 36.6627 173.013 36.775 172.901C36.8873 172.789 37.0396 172.726 37.1984 172.726C37.3563 172.729 37.5068 172.793 37.6185 172.904C37.7301 173.016 37.7942 173.167 37.7973 173.324V185.145C37.7973 185.304 37.7342 185.456 37.6219 185.569C37.5096 185.681 37.3573 185.744 37.1984 185.744Z" fill="#EDEDED"/>
<path d="M51.858 184.295H0.598633V188.68H51.858V184.295Z" fill="white"/>
<path d="M51.8582 189.278H0.598824C0.440966 189.275 0.290443 189.211 0.178799 189.1C0.0671557 188.988 0.00306607 188.837 0 188.679V184.296C0 184.137 0.0630989 183.985 0.1754 183.873C0.287702 183.76 0.440006 183.697 0.598824 183.697H51.8582C52.017 183.697 52.1693 183.76 52.2816 183.873C52.3939 183.985 52.457 184.137 52.457 184.296V188.679C52.457 188.838 52.3939 188.991 52.2816 189.103C52.1693 189.215 52.017 189.278 51.8582 189.278ZM1.19765 188.081H51.2593V184.895H1.19765V188.081Z" fill="#EDEDED"/>
<path d="M47.7258 188.68H4.74219V192.895H47.7258V188.68Z" fill="white"/>
<path d="M47.726 193.481H4.74238C4.58356 193.481 4.43126 193.418 4.31895 193.306C4.20665 193.194 4.14355 193.041 4.14355 192.883V188.679C4.14355 188.52 4.20665 188.368 4.31895 188.255C4.43126 188.143 4.58356 188.08 4.74238 188.08H47.726C47.8848 188.08 48.0371 188.143 48.1494 188.255C48.2617 188.368 48.3248 188.52 48.3248 188.679V192.883C48.3248 193.041 48.2617 193.194 48.1494 193.306C48.0371 193.418 47.8848 193.481 47.726 193.481ZM5.3412 192.284H47.1272V189.278H5.3412V192.284Z" fill="#EDEDED"/>
<path d="M47.7258 188.68H4.74219V192.895H47.7258V188.68Z" fill="#EDEDED"/>
<path d="M47.7258 192.884H4.74219V204.705H47.7258V192.884Z" fill="white"/>
<path d="M47.7259 205.304H4.74238C4.58356 205.304 4.43126 205.241 4.31895 205.128C4.20665 205.016 4.14355 204.864 4.14355 204.705V192.883C4.14355 192.724 4.20665 192.572 4.31895 192.46C4.43126 192.347 4.58356 192.284 4.74238 192.284H47.7259C47.8848 192.284 48.0371 192.347 48.1494 192.46C48.2617 192.572 48.3248 192.724 48.3248 192.883V204.705C48.3248 204.864 48.2617 205.016 48.1494 205.128C48.0371 205.241 47.8848 205.304 47.7259 205.304ZM5.3412 204.106H47.1271V193.482H5.3412V204.106Z" fill="#EDEDED"/>
<path d="M47.7258 192.884H4.74219V204.705H47.7258V192.884Z" fill="#D1D3D4"/>
<path d="M47.7259 205.304H4.74238C4.58356 205.304 4.43126 205.241 4.31895 205.128C4.20665 205.016 4.14355 204.864 4.14355 204.705V192.883C4.14355 192.724 4.20665 192.572 4.31895 192.46C4.43126 192.347 4.58356 192.284 4.74238 192.284H47.7259C47.8848 192.284 48.0371 192.347 48.1494 192.46C48.2617 192.572 48.3248 192.724 48.3248 192.883V204.705C48.3248 204.864 48.2617 205.016 48.1494 205.128C48.0371 205.241 47.8848 205.304 47.7259 205.304ZM5.3412 204.106H47.1271V193.482H5.3412V204.106Z" fill="#EDEDED"/>
<path d="M15.2219 205.304C15.0631 205.304 14.9108 205.241 14.7985 205.128C14.6861 205.016 14.623 204.864 14.623 204.705V192.883C14.6261 192.725 14.6902 192.575 14.8019 192.463C14.9135 192.351 15.064 192.287 15.2219 192.284C15.3807 192.284 15.533 192.347 15.6453 192.46C15.7576 192.572 15.8207 192.724 15.8207 192.883V204.705C15.8207 204.864 15.7576 205.016 15.6453 205.128C15.533 205.241 15.3807 205.304 15.2219 205.304Z" fill="#EDEDED"/>
<path d="M26.2282 205.304C26.0694 205.304 25.9171 205.241 25.8048 205.128C25.6925 205.016 25.6294 204.864 25.6294 204.705V192.883C25.6325 192.725 25.6965 192.575 25.8082 192.463C25.9198 192.351 26.0704 192.287 26.2282 192.284C26.387 192.284 26.5393 192.347 26.6516 192.46C26.7639 192.572 26.827 192.724 26.827 192.883V204.705C26.827 204.864 26.7639 205.016 26.6516 205.128C26.5393 205.241 26.387 205.304 26.2282 205.304Z" fill="#EDEDED"/>
<path d="M37.1984 205.304C37.0396 205.304 36.8873 205.241 36.775 205.128C36.6627 205.016 36.5996 204.864 36.5996 204.705V192.883C36.5996 192.724 36.6627 192.572 36.775 192.46C36.8873 192.347 37.0396 192.284 37.1984 192.284C37.3563 192.287 37.5068 192.351 37.6184 192.463C37.7301 192.575 37.7942 192.725 37.7972 192.883V204.705C37.7972 204.864 37.7341 205.016 37.6218 205.128C37.5095 205.241 37.3572 205.304 37.1984 205.304Z" fill="#EDEDED"/>
<path d="M51.858 203.854H0.598633V208.238H51.858V203.854Z" fill="white"/>
<path d="M51.8582 208.837H0.598824C0.440966 208.834 0.290443 208.77 0.178799 208.658C0.0671557 208.546 0.00306607 208.396 0 208.238V203.855C0 203.696 0.0630989 203.544 0.1754 203.431C0.287702 203.319 0.440006 203.256 0.598824 203.256H51.8582C52.017 203.256 52.1693 203.319 52.2816 203.431C52.3939 203.544 52.457 203.696 52.457 203.855V208.238C52.457 208.397 52.3939 208.549 52.2816 208.662C52.1693 208.774 52.017 208.837 51.8582 208.837ZM1.19765 207.639H51.2593V204.454H1.19765V207.639Z" fill="#EDEDED"/>
<path d="M47.7258 208.239H4.74219V212.455H47.7258V208.239Z" fill="white"/>
<path d="M47.726 213.041H4.74238C4.58356 213.041 4.43126 212.978 4.31895 212.866C4.20665 212.753 4.14355 212.601 4.14355 212.442V208.238C4.14355 208.08 4.20665 207.927 4.31895 207.815C4.43126 207.703 4.58356 207.64 4.74238 207.64H47.726C47.8848 207.64 48.0371 207.703 48.1494 207.815C48.2617 207.927 48.3248 208.08 48.3248 208.238V212.442C48.3248 212.601 48.2617 212.753 48.1494 212.866C48.0371 212.978 47.8848 213.041 47.726 213.041ZM5.3412 211.843H47.1272V208.837H5.3412V211.843Z" fill="#EDEDED"/>
<path d="M47.7258 208.239H4.74219V212.455H47.7258V208.239Z" fill="#EDEDED"/>
<path d="M47.7258 212.443H4.74219V224.266H47.7258V212.443Z" fill="white"/>
<path d="M47.7259 224.863H4.74238C4.58356 224.863 4.43126 224.8 4.31895 224.688C4.20665 224.576 4.14355 224.423 4.14355 224.264V212.443C4.14355 212.284 4.20665 212.131 4.31895 212.019C4.43126 211.907 4.58356 211.844 4.74238 211.844H47.7259C47.8848 211.844 48.0371 211.907 48.1494 212.019C48.2617 212.131 48.3248 212.284 48.3248 212.443V224.264C48.3248 224.423 48.2617 224.576 48.1494 224.688C48.0371 224.8 47.8848 224.863 47.7259 224.863ZM5.3412 223.666H47.1271V213.041H5.3412V223.666Z" fill="#EDEDED"/>
<path d="M47.7258 212.443H4.74219V224.266H47.7258V212.443Z" fill="#D1D3D4"/>
<path d="M47.7259 224.863H4.74238C4.58356 224.863 4.43126 224.8 4.31895 224.688C4.20665 224.576 4.14355 224.423 4.14355 224.264V212.443C4.14355 212.284 4.20665 212.131 4.31895 212.019C4.43126 211.907 4.58356 211.844 4.74238 211.844H47.7259C47.8848 211.844 48.0371 211.907 48.1494 212.019C48.2617 212.131 48.3248 212.284 48.3248 212.443V224.264C48.3248 224.423 48.2617 224.576 48.1494 224.688C48.0371 224.8 47.8848 224.863 47.7259 224.863ZM5.3412 223.666H47.1271V213.041H5.3412V223.666Z" fill="#EDEDED"/>
<path d="M15.2219 224.863C15.0631 224.863 14.9108 224.8 14.7985 224.688C14.6861 224.576 14.623 224.423 14.623 224.264V212.443C14.6261 212.285 14.6902 212.134 14.8019 212.023C14.9135 211.911 15.064 211.847 15.2219 211.844C15.3807 211.844 15.533 211.907 15.6453 212.019C15.7576 212.131 15.8207 212.284 15.8207 212.443V224.264C15.8207 224.423 15.7576 224.576 15.6453 224.688C15.533 224.8 15.3807 224.863 15.2219 224.863Z" fill="#EDEDED"/>
<path d="M26.2282 224.863C26.0694 224.863 25.9171 224.8 25.8048 224.688C25.6925 224.576 25.6294 224.423 25.6294 224.264V212.443C25.6325 212.285 25.6965 212.134 25.8082 212.023C25.9198 211.911 26.0704 211.847 26.2282 211.844C26.387 211.844 26.5393 211.907 26.6516 212.019C26.7639 212.131 26.827 212.284 26.827 212.443V224.264C26.827 224.423 26.7639 224.576 26.6516 224.688C26.5393 224.8 26.387 224.863 26.2282 224.863Z" fill="#EDEDED"/>
<path d="M37.1984 224.863C37.0396 224.863 36.8873 224.8 36.775 224.688C36.6627 224.576 36.5996 224.423 36.5996 224.264V212.443C36.5996 212.284 36.6627 212.131 36.775 212.019C36.8873 211.907 37.0396 211.844 37.1984 211.844C37.3563 211.847 37.5068 211.911 37.6184 212.023C37.7301 212.134 37.7942 212.285 37.7972 212.443V224.264C37.7972 224.423 37.7341 224.576 37.6218 224.688C37.5095 224.8 37.3572 224.863 37.1984 224.863Z" fill="#EDEDED"/>
<path d="M51.858 223.414H0.598633V227.797H51.858V223.414Z" fill="white"/>
<path d="M51.8582 228.396H0.598824C0.440966 228.393 0.290443 228.329 0.178799 228.218C0.0671557 228.106 0.00306607 227.956 0 227.798V223.414C0 223.255 0.0630989 223.103 0.1754 222.991C0.287702 222.879 0.440006 222.815 0.598824 222.815H51.8582C52.017 222.815 52.1693 222.879 52.2816 222.991C52.3939 223.103 52.457 223.255 52.457 223.414V227.798C52.457 227.956 52.3939 228.109 52.2816 228.221C52.1693 228.333 52.017 228.396 51.8582 228.396ZM1.19765 227.199H51.2593V224.013H1.19765V227.199Z" fill="#EDEDED"/>
<path d="M47.7258 227.798H4.74219V232.015H47.7258V227.798Z" fill="white"/>
<path d="M47.726 232.613H4.74238C4.58356 232.613 4.43126 232.549 4.31895 232.437C4.20665 232.325 4.14355 232.173 4.14355 232.014V227.798C4.14355 227.639 4.20665 227.487 4.31895 227.375C4.43126 227.262 4.58356 227.199 4.74238 227.199H47.726C47.8848 227.199 48.0371 227.262 48.1494 227.375C48.2617 227.487 48.3248 227.639 48.3248 227.798V232.014C48.3248 232.173 48.2617 232.325 48.1494 232.437C48.0371 232.549 47.8848 232.613 47.726 232.613ZM5.3412 231.415H47.1272V228.397H5.3412V231.415Z" fill="#EDEDED"/>
<path d="M47.7258 227.798H4.74219V232.015H47.7258V227.798Z" fill="#EDEDED"/>
<path d="M47.7258 232.002H4.74219V243.822H47.7258V232.002Z" fill="white"/>
<path d="M47.7259 244.436H4.74238C4.58356 244.436 4.43126 244.372 4.31895 244.26C4.20665 244.148 4.14355 243.995 4.14355 243.837V232.014C4.14355 231.855 4.20665 231.703 4.31895 231.59C4.43126 231.478 4.58356 231.415 4.74238 231.415H47.7259C47.8848 231.415 48.0371 231.478 48.1494 231.59C48.2617 231.703 48.3248 231.855 48.3248 232.014V243.837C48.3248 243.995 48.2617 244.148 48.1494 244.26C48.0371 244.372 47.8848 244.436 47.7259 244.436ZM5.3412 243.238H47.1271V232.613H5.3412V243.238Z" fill="#EDEDED"/>
<path d="M47.7258 232.002H4.74219V243.822H47.7258V232.002Z" fill="#D1D3D4"/>
<path d="M47.7259 244.436H4.74238C4.58356 244.436 4.43126 244.372 4.31895 244.26C4.20665 244.148 4.14355 243.995 4.14355 243.837V232.014C4.14355 231.855 4.20665 231.703 4.31895 231.59C4.43126 231.478 4.58356 231.415 4.74238 231.415H47.7259C47.8848 231.415 48.0371 231.478 48.1494 231.59C48.2617 231.703 48.3248 231.855 48.3248 232.014V243.837C48.3248 243.995 48.2617 244.148 48.1494 244.26C48.0371 244.372 47.8848 244.436 47.7259 244.436ZM5.3412 243.238H47.1271V232.613H5.3412V243.238Z" fill="#EDEDED"/>
<path d="M15.2219 244.436C15.064 244.432 14.9135 244.368 14.8019 244.257C14.6902 244.145 14.6261 243.995 14.623 243.837V232.014C14.623 231.855 14.6861 231.703 14.7985 231.59C14.9108 231.478 15.0631 231.415 15.2219 231.415C15.3807 231.415 15.533 231.478 15.6453 231.59C15.7576 231.703 15.8207 231.855 15.8207 232.014V243.837C15.8207 243.995 15.7576 244.148 15.6453 244.26C15.533 244.372 15.3807 244.436 15.2219 244.436Z" fill="#EDEDED"/>
<path d="M26.2282 244.436C26.0704 244.432 25.9198 244.368 25.8082 244.257C25.6965 244.145 25.6325 243.995 25.6294 243.837V232.014C25.6294 231.855 25.6925 231.703 25.8048 231.59C25.9171 231.478 26.0694 231.415 26.2282 231.415C26.387 231.415 26.5393 231.478 26.6516 231.59C26.7639 231.703 26.827 231.855 26.827 232.014V243.837C26.827 243.995 26.7639 244.148 26.6516 244.26C26.5393 244.372 26.387 244.436 26.2282 244.436Z" fill="#EDEDED"/>
<path d="M37.1984 244.436C37.0396 244.436 36.8873 244.372 36.775 244.26C36.6627 244.148 36.5996 243.995 36.5996 243.837V232.014C36.5996 231.855 36.6627 231.703 36.775 231.59C36.8873 231.478 37.0396 231.415 37.1984 231.415C37.3572 231.415 37.5095 231.478 37.6218 231.59C37.7341 231.703 37.7972 231.855 37.7972 232.014V243.837C37.7942 243.995 37.7301 244.145 37.6184 244.257C37.5068 244.368 37.3563 244.432 37.1984 244.436Z" fill="#EDEDED"/>
</svg>
