<svg width="72" height="72" viewBox="0 0 72 72" fill="none" xmlns="http://www.w3.org/2000/svg">
<path d="M36 63C50.9117 63 63 50.9117 63 36C63 21.0883 50.9117 9 36 9C21.0883 9 9 21.0883 9 36C9 50.9117 21.0883 63 36 63Z" stroke="#A84002" stroke-width="6" stroke-linecap="round" stroke-linejoin="round"/>
<path d="M10.8 27H61.2" stroke="#A84002" stroke-width="6" stroke-linecap="round" stroke-linejoin="round"/>
<path d="M10.8 45H61.2" stroke="#A84002" stroke-width="6" stroke-linecap="round" stroke-linejoin="round"/>
<path d="M34.5 9C29.446 17.0988 26.7666 26.4536 26.7666 36C26.7666 45.5464 29.446 54.9012 34.5 63" stroke="#A84002" stroke-width="6" stroke-linecap="round" stroke-linejoin="round"/>
<path d="M37.5 9C42.554 17.0988 45.2334 26.4536 45.2334 36C45.2334 45.5464 42.554 54.9012 37.5 63" stroke="#A84002" stroke-width="6" stroke-linecap="round" stroke-linejoin="round"/>
</svg>
