<svg width="72" height="72" viewBox="0 0 72 72" fill="none" xmlns="http://www.w3.org/2000/svg">
<path d="M15 48H12C10.3431 48 9 49.3431 9 51V60C9 61.6569 10.3431 63 12 63H15C16.6569 63 18 61.6569 18 60V51C18 49.3431 16.6569 48 15 48Z" stroke="#A84002" stroke-width="6" stroke-linecap="round" stroke-linejoin="round"/>
<path d="M18 60.0001C18 60.7958 18.3161 61.5588 18.8787 62.1214C19.4413 62.6841 20.2044 63.0001 21 63.0001H32.268C32.9134 63.0002 33.5416 62.7921 34.0594 62.4067C34.5771 62.0214 34.9568 61.4794 35.142 60.8611L38.742 51.8611C39.012 50.9521 39.141 49.9711 38.574 49.2091C38.01 48.4471 36.948 48.0001 36 48.0001H30V40.5991C29.9996 39.8911 29.7716 39.202 29.3495 38.6336C28.9275 38.0651 28.3338 37.6475 27.6562 37.4423C26.9785 37.2372 26.2529 37.2554 25.5864 37.4944C24.9199 37.7333 24.348 38.1802 23.955 38.7691L18 48.0001V60.0001V60.0001Z" stroke="#A84002" stroke-width="6" stroke-linecap="round" stroke-linejoin="round"/>
<path d="M42 9V21C42 21.7956 42.3161 22.5587 42.8787 23.1213C43.4413 23.6839 44.2044 24 45 24H57" stroke="#A84002" stroke-width="6" stroke-linecap="round" stroke-linejoin="round"/>
<path d="M15 36.3V15C15 13.4087 15.6321 11.8826 16.7574 10.7574C17.8826 9.63214 19.4087 9 21 9H42L57 24V57C57 58.5913 56.3679 60.1174 55.2426 61.2426C54.1174 62.3679 52.5913 63 51 63H44.1" stroke="#A84002" stroke-width="6" stroke-linecap="round" stroke-linejoin="round"/>
</svg>
