<svg>
  <symbol id="geo" width="11" height="16" viewBox="0 0 11 16" xmlns="http://www.w3.org/2000/svg">
  <path fill-rule="evenodd" clip-rule="evenodd" d="M5.48318 0.00186157C7.4465 0.00186157 9.32446 0.996399 10.2634 2.7369C11.2024 4.39448 11.2877 6.3836 10.2634 8.04123V8.1241L6.59285 14.3401C6.33678 14.7545 5.91001 15.0031 5.48318 15.0031C5.05641 15.0031 4.62958 14.7545 4.37352 14.3401L0.788355 8.28985C-0.748137 5.72056 0.020109 2.32248 2.58091 0.830651C3.43451 0.333358 4.45882 0.00186157 5.48318 0.00186157ZM9.49518 7.79246V7.70958C10.3488 6.30062 10.3488 4.56012 9.49518 3.15117C8.72688 1.82509 7.19039 0.913422 5.48319 0.913422C4.62959 0.913422 3.77599 1.16204 3.00774 1.57646C0.873718 2.81967 0.190828 5.72046 1.55661 7.87533L5.14182 13.9256C5.22718 14.0913 5.39789 14.1742 5.48324 14.1742C5.5686 14.1742 5.73931 14.1742 5.82466 13.9256L9.49518 7.79246ZM5.4998 3.33521C4.31517 3.33521 3.38442 4.25186 3.38442 5.41854C3.38442 6.58522 4.31517 7.50187 5.4998 7.50187C6.68443 7.50187 7.61518 6.58522 7.61518 5.41854C7.61518 4.25186 6.68443 3.33521 5.4998 3.33521ZM4.23077 5.4185C4.23077 6.08517 4.82308 6.66851 5.50001 6.66851C6.17693 6.66851 6.76925 6.08517 6.76925 5.4185C6.76925 4.75183 6.17693 4.16849 5.50001 4.16849C4.82308 4.16849 4.23077 4.75183 4.23077 5.4185Z" />
  </symbol>

  <symbol id="phone" viewBox="0 0 16 17" xmlns="http://www.w3.org/2000/svg">
  <path d="M15.6413 12.6581L13.1704 10.181C12.6782 9.68969 11.8632 9.70462 11.3538 10.2153L10.109 11.4628C10.0303 11.4194 9.94891 11.374 9.86332 11.3259C9.07719 10.8893 8.00124 10.2908 6.86903 9.15513C5.73347 8.01703 5.1359 6.9369 4.69898 6.14842C4.65288 6.06488 4.6087 5.98434 4.56508 5.90786L5.40057 5.07165L5.81133 4.65941C6.32143 4.14798 6.33549 3.33126 5.84448 2.83849L3.37353 0.361174C2.88251 -0.130907 2.0671 -0.115979 1.55701 0.395453L0.860608 1.0975L0.879638 1.11643C0.646127 1.41509 0.450997 1.75955 0.305788 2.131C0.171932 2.48458 0.0885942 2.82199 0.0504876 3.16009C-0.275785 5.87132 0.960264 8.34919 4.31474 11.7116C8.95165 16.3591 12.6884 16.008 12.8496 15.9909C13.2007 15.9488 13.5372 15.8647 13.8791 15.7316C14.2465 15.5877 14.5899 15.3924 14.8877 15.1589L14.9029 15.1724L15.6084 14.48C16.1174 13.9686 16.1321 13.1516 15.6413 12.6581Z" />
  </symbol>

  <symbol id="advantage" viewBox="0 0 25 26" fill="none" xmlns="http://www.w3.org/2000/svg">
  <path d="M9.37492 11.9863C11.6761 11.9863 13.5416 10.1206 13.5416 7.81909C13.5416 5.51759 11.6761 3.65186 9.37492 3.65186C7.07373 3.65186 5.20825 5.51759 5.20825 7.81909C5.20825 10.1206 7.07373 11.9863 9.37492 11.9863Z" stroke-width="2" stroke-linecap="round" stroke-linejoin="round"/>
  <path d="M3.125 22.4023V20.319C3.125 19.2139 3.56399 18.1541 4.34539 17.3727C5.12679 16.5913 6.1866 16.1523 7.29167 16.1523H11.4583C12.5634 16.1523 13.6232 16.5913 14.4046 17.3727C15.186 18.1541 15.625 19.2139 15.625 20.319V22.4023" stroke-width="2" stroke-linecap="round" stroke-linejoin="round"/>
  <path d="M16.6667 11.9862L18.7501 14.0695L22.9167 9.90283" stroke-width="2" stroke-linecap="round" stroke-linejoin="round"/>
  </symbol>

  <symbol id="disadvantage" viewBox="0 0 25 26" fill="none" xmlns="http://www.w3.org/2000/svg">
  <path d="M9.37492 11.9798C11.6761 11.9798 13.5416 10.1143 13.5416 7.81315C13.5416 5.51196 11.6761 3.64648 9.37492 3.64648C7.07373 3.64648 5.20825 5.51196 5.20825 7.81315C5.20825 10.1143 7.07373 11.9798 9.37492 11.9798Z" stroke-linecap="round" stroke-linejoin="round"/>
  <path d="M3.125 22.3975V20.3141C3.125 19.2091 3.56399 18.1493 4.34539 17.3679C5.12679 16.5864 6.1866 16.1475 7.29167 16.1475H11.4583C12.5634 16.1475 13.6232 16.5864 14.4046 17.3679C15.186 18.1493 15.625 19.2091 15.625 20.3141V22.3975" stroke-linecap="round" stroke-linejoin="round"/>
  <path d="M16.6667 3.78125C17.563 4.01073 18.3574 4.53198 18.9247 5.26282C19.492 5.99367 19.7999 6.89253 19.7999 7.81771C19.7999 8.74289 19.492 9.64175 18.9247 10.3726C18.3574 11.1034 17.563 11.6247 16.6667 11.8542" stroke-linecap="round" stroke-linejoin="round"/>
  <path d="M21.875 22.397V20.3136C21.8697 19.394 21.5603 18.502 20.9951 17.7766C20.4298 17.0511 19.6404 16.5331 18.75 16.3032" stroke-linecap="round" stroke-linejoin="round"/>
  </symbol>

  <symbol id="instagram" viewBox="0 0 22 23" xmlns="http://www.w3.org/2000/svg">
  <path fill-rule="evenodd" clip-rule="evenodd" d="M15.4461 0.961914H6.55392C2.94007 0.961914 0 3.90199 0 7.51583V16.408C0 20.0218 2.94007 22.9619 6.55392 22.9619H15.4461C19.0599 22.9619 22 20.0218 22 16.408V7.51583C22 3.90199 19.0599 0.961914 15.4461 0.961914ZM19.7868 16.4099C19.7868 18.8076 17.8434 20.7513 15.4461 20.7513H6.55392C4.15663 20.7513 2.2132 18.8076 2.2132 16.4099V7.51647C2.2132 5.11878 4.15663 3.17511 6.55392 3.17511H15.4461C17.8434 3.17511 19.7868 5.11878 19.7868 7.51647V16.4099ZM5.31002 11.9628C5.31002 8.82488 7.86254 6.27193 11 6.27193C14.1375 6.27193 16.69 8.82484 16.69 11.9628C16.69 15.1008 14.1375 17.6538 11 17.6538C7.86254 17.6538 5.31002 15.1008 5.31002 11.9628ZM11 15.4399C9.07982 15.4399 7.52322 13.8833 7.52322 11.9631C7.52322 10.0429 9.07986 8.48633 11 8.48633C12.9202 8.48633 14.4768 10.0429 14.4768 11.9631C14.4768 13.8833 12.9202 15.4399 11 15.4399ZM18.0644 6.31401C18.0644 7.06666 17.454 7.6768 16.701 7.6768C15.948 7.6768 15.3376 7.06666 15.3376 6.31401C15.3376 5.56136 15.948 4.95121 16.701 4.95121C17.454 4.95121 18.0644 5.56136 18.0644 6.31401Z"/>
  </symbol>

  <symbol id="vk" viewBox="0 0 20 13" xmlns="http://www.w3.org/2000/svg">
  <path d="M17.2129 8.5862C17.3884 8.76796 17.5666 8.94687 17.7447 9.12573C18.2396 9.62265 18.734 10.1191 19.1715 10.6751C19.4344 11.011 19.6832 11.3577 19.8736 11.7476C20.1433 12.3018 19.899 12.9117 19.4303 12.9448L16.5166 12.9434C15.7652 13.0095 15.1657 12.6887 14.6616 12.144C14.3886 11.8492 14.1293 11.5416 13.87 11.234C13.7461 11.087 13.6222 10.94 13.4967 10.7943C13.3377 10.6103 13.1713 10.4371 12.9724 10.3002C12.5747 10.0264 12.2294 10.1102 12.0021 10.5501C11.7706 10.9974 11.7181 11.4928 11.6954 11.9913C11.6642 12.7188 11.4568 12.91 10.7676 12.9433C9.29473 13.017 7.89691 12.7807 6.59838 11.9929C5.45355 11.2985 4.56579 10.3181 3.79308 9.20815C2.28861 7.04691 1.13649 4.67206 0.101007 2.23067C-0.132072 1.68063 0.0383836 1.38536 0.610798 1.37491C1.56132 1.35533 2.5117 1.35673 3.46334 1.37352C3.84966 1.37951 4.10541 1.61444 4.25458 2.00139C4.76883 3.34205 5.39809 4.61757 6.18794 5.79988C6.39829 6.11465 6.61277 6.42942 6.9182 6.65097C7.25609 6.89628 7.51335 6.81497 7.6723 6.4159C7.77317 6.16286 7.81733 5.89031 7.84007 5.61929C7.91537 4.6869 7.92529 3.7561 7.79321 2.82698C7.71213 2.24711 7.40407 1.87173 6.85833 1.762C6.57985 1.70605 6.62131 1.59618 6.75615 1.42765C6.99035 1.13699 7.21061 0.956055 7.6497 0.956055H10.9426C11.461 1.06453 11.5761 1.31144 11.6471 1.86449L11.6499 5.74254C11.6442 5.95664 11.7508 6.59196 12.1145 6.73367C12.3868 6.82805 12.5723 6.61804 12.7381 6.43033C12.7495 6.41739 12.7609 6.40456 12.7721 6.39194C13.5605 5.50476 14.1232 4.45629 14.6259 3.37062C14.849 2.89324 15.0408 2.39746 15.2267 1.90211C15.3644 1.53453 15.5806 1.35366 15.9711 1.36167L19.1403 1.36467C19.2343 1.36467 19.3294 1.36613 19.4204 1.38265C19.9544 1.47914 20.1007 1.72271 19.9358 2.27561C19.6857 3.11031 19.2081 3.81115 18.7319 4.50992C18.7132 4.53735 18.6945 4.56478 18.6759 4.59221C18.4287 4.95487 18.1734 5.31171 17.9181 5.66865C17.6276 6.07486 17.3369 6.48119 17.058 6.89635C16.5764 7.60859 16.6147 7.9676 17.2129 8.5862Z"/>
  <path d="M17.2129 8.5862C17.3884 8.76796 17.5666 8.94687 17.7447 9.12573C18.2396 9.62265 18.734 10.1191 19.1715 10.6751C19.4344 11.011 19.6832 11.3577 19.8736 11.7476C20.1433 12.3018 19.899 12.9117 19.4303 12.9448L16.5166 12.9434C15.7652 13.0095 15.1657 12.6887 14.6616 12.144C14.3886 11.8492 14.1293 11.5416 13.87 11.234C13.7461 11.087 13.6222 10.94 13.4967 10.7943C13.3377 10.6103 13.1713 10.4371 12.9724 10.3002C12.5747 10.0264 12.2294 10.1102 12.0021 10.5501C11.7706 10.9974 11.7181 11.4928 11.6954 11.9913C11.6642 12.7188 11.4568 12.91 10.7676 12.9433C9.29473 13.017 7.89691 12.7807 6.59838 11.9929C5.45355 11.2985 4.56579 10.3181 3.79308 9.20815C2.28861 7.04691 1.13649 4.67206 0.101007 2.23067C-0.132072 1.68063 0.0383836 1.38536 0.610798 1.37491C1.56132 1.35533 2.5117 1.35673 3.46334 1.37352C3.84966 1.37951 4.10541 1.61444 4.25458 2.00139C4.76883 3.34205 5.39809 4.61757 6.18794 5.79988C6.39829 6.11465 6.61277 6.42942 6.9182 6.65097C7.25609 6.89628 7.51335 6.81497 7.6723 6.4159C7.77317 6.16286 7.81733 5.89031 7.84007 5.61929C7.91537 4.6869 7.92529 3.7561 7.79321 2.82698C7.71213 2.24711 7.40407 1.87173 6.85833 1.762C6.57985 1.70605 6.62131 1.59618 6.75615 1.42765C6.99035 1.13699 7.21061 0.956055 7.6497 0.956055H10.9426C11.461 1.06453 11.5761 1.31144 11.6471 1.86449L11.6499 5.74254C11.6442 5.95664 11.7508 6.59196 12.1145 6.73367C12.3868 6.82805 12.5723 6.61804 12.7381 6.43033C12.7495 6.41739 12.7609 6.40456 12.7721 6.39194C13.5605 5.50476 14.1232 4.45629 14.6259 3.37062C14.849 2.89324 15.0408 2.39746 15.2267 1.90211C15.3644 1.53453 15.5806 1.35366 15.9711 1.36167L19.1403 1.36467C19.2343 1.36467 19.3294 1.36613 19.4204 1.38265C19.9544 1.47914 20.1007 1.72271 19.9358 2.27561C19.6857 3.11031 19.2081 3.81115 18.7319 4.50992C18.7132 4.53735 18.6945 4.56478 18.6759 4.59221C18.4287 4.95487 18.1734 5.31171 17.9181 5.66865C17.6276 6.07486 17.3369 6.48119 17.058 6.89635C16.5764 7.60859 16.6147 7.9676 17.2129 8.5862Z"/>
  </symbol>

  <symbol id="ig-footer" viewBox="0 0 20 20" xmlns="http://www.w3.org/2000/svg">
  <g clip-path="url(#clip0)">
  <path fill-rule="evenodd" clip-rule="evenodd" d="M19.2417 0.758333C18.7333 0.25 18.1333 0 17.4333 0H2.56667C1.85833 0 1.25833 0.25 0.758333 0.758333C0.258333 1.26667 0 1.86667 0 2.56667V17.4333C0 18.1417 0.25 18.7417 0.758333 19.2417C1.26667 19.7417 1.86667 20 2.56667 20H17.4333C18.1417 20 18.7417 19.75 19.2417 19.2417C19.7417 18.7333 20 18.1333 20 17.4333V2.56667C20 1.85833 19.75 1.25833 19.2417 0.758333ZM7.175 7.20833C7.95833 6.45 8.90833 6.06667 10.0083 6.06667C11.1167 6.06667 12.0667 6.45 12.85 7.20833C13.6333 7.96667 14.025 8.88333 14.025 9.95833C14.025 11.0333 13.6333 11.95 12.85 12.7083C12.0667 13.4667 11.1167 13.85 10.0083 13.85C8.90833 13.85 7.95833 13.4667 7.175 12.7083C6.39167 11.95 6 11.0333 6 9.95833C6 8.88333 6.39167 7.96667 7.175 7.20833ZM17.725 16.9C17.725 17.125 17.65 17.3167 17.4917 17.4667C17.4193 17.5414 17.3325 17.6006 17.2365 17.6407C17.1405 17.6809 17.0374 17.701 16.9333 17.7H3.01667C2.91131 17.7017 2.80672 17.6818 2.70929 17.6417C2.61186 17.6016 2.52363 17.542 2.45 17.4667C2.37573 17.3926 2.31745 17.3041 2.27875 17.2067C2.24005 17.1092 2.22175 17.0048 2.225 16.9V8.45833H4.05833C3.88463 9.01105 3.79749 9.58731 3.8 10.1667C3.8 11.8333 4.40833 13.2583 5.625 14.4333C6.84167 15.6083 8.3 16.2 10.0167 16.2C11.1111 16.2088 12.1887 15.9301 13.1417 15.3917C14.0769 14.8733 14.8588 14.1173 15.4083 13.2C15.96 12.2879 16.2484 11.2409 16.2417 10.175C16.2417 9.58333 16.15 9.01667 15.9833 8.46667H17.7417V16.9H17.725ZM17.725 5.275C17.725 5.525 17.6333 5.74167 17.4667 5.91667C17.3829 6.00107 17.2828 6.06752 17.1724 6.11193C17.0621 6.15635 16.9439 6.17781 16.825 6.175H14.5583C14.3083 6.175 14.0917 6.08333 13.9167 5.91667C13.8323 5.83288 13.7658 5.73277 13.7214 5.62244C13.677 5.51212 13.6555 5.3939 13.6583 5.275V3.125C13.6583 2.88333 13.75 2.675 13.9167 2.49167C14.0833 2.30833 14.3083 2.225 14.5583 2.225H16.825C17.075 2.225 17.2917 2.31667 17.4667 2.49167C17.6417 2.66667 17.725 2.88333 17.725 3.125V5.275Z" />
  </g>
  <defs>
  <clipPath id="clip0">
  <rect width="20" height="20" fill="white"/>
  </clipPath>
  </defs>
  </symbol>

</svg>
