<svg width="52" height="52" viewBox="0 0 52 52" fill="none" xmlns="http://www.w3.org/2000/svg">
<path opacity="0.4" fill-rule="evenodd" clip-rule="evenodd" d="M26 51.1987C39.8071 51.1987 51 40.0049 51 26.1965C51 12.3882 39.8071 1.19434 26 1.19434C12.1929 1.19434 1 12.3882 1 26.1965C1 40.0049 12.1929 51.1987 26 51.1987Z" stroke="#A84002"/>
<path opacity="0.4" fill-rule="evenodd" clip-rule="evenodd" d="M20.3347 25.4161L26.4478 19.5189C26.8949 19.0881 27.618 19.0881 28.0651 19.5189C28.5115 19.9498 28.5115 20.648 28.0651 21.0788L22.7599 26.196L28.0651 31.314C28.5115 31.7448 28.5115 32.443 28.0651 32.8739C27.618 33.3047 26.8949 33.3047 26.4478 32.8739L20.3347 26.976C19.8883 26.5451 19.8883 25.8469 20.3347 25.4161Z" fill="#A84002"/>
</svg>
